<svg width="636" height="198" viewBox="0 0 636 198" fill="none" xmlns="http://www.w3.org/2000/svg">
<path fill-rule="evenodd" clip-rule="evenodd" d="M230.767 149.335H232.172V159.167H230.767V149.335ZM247.792 149.335V159.167H246.641L240.741 151.835V159.167H239.337V149.335H240.489L246.388 156.667V149.335H247.792ZM256.362 150.557V153.984H261.292V155.192H256.362V159.167H254.957V149.335H261.896V150.557H256.362ZM272.418 159.28C271.425 159.28 270.531 159.062 269.735 158.626C268.939 158.191 268.314 157.59 267.86 156.822C267.406 156.054 267.179 155.197 267.179 154.251C267.179 153.306 267.406 152.449 267.86 151.681C268.314 150.913 268.939 150.311 269.735 149.876C270.531 149.441 271.425 149.223 272.418 149.223C273.401 149.223 274.29 149.441 275.086 149.876C275.882 150.311 276.505 150.911 276.955 151.674C277.404 152.437 277.629 153.296 277.629 154.251C277.629 155.206 277.404 156.066 276.955 156.829C276.505 157.592 275.882 158.191 275.086 158.626C274.29 159.062 273.401 159.28 272.418 159.28ZM272.418 158.03C273.139 158.03 273.787 157.866 274.363 157.538C274.939 157.21 275.393 156.758 275.726 156.182C276.058 155.607 276.224 154.963 276.224 154.251C276.224 153.539 276.058 152.896 275.726 152.32C275.393 151.744 274.939 151.292 274.363 150.964C273.787 150.637 273.139 150.473 272.418 150.473C271.697 150.473 271.043 150.637 270.458 150.964C269.873 151.292 269.414 151.744 269.082 152.32C268.75 152.896 268.583 153.539 268.583 154.251C268.583 154.963 268.75 155.607 269.082 156.182C269.414 156.758 269.873 157.21 270.458 157.538C271.043 157.866 271.697 158.03 272.418 158.03ZM290.566 159.167L288.446 156.147C288.183 156.166 287.977 156.176 287.828 156.176H285.398V159.167H283.993V149.335H287.828C289.101 149.335 290.103 149.64 290.833 150.248C291.564 150.857 291.929 151.695 291.929 152.762C291.929 153.521 291.742 154.167 291.367 154.701C290.993 155.235 290.459 155.623 289.766 155.867L292.097 159.167H290.566ZM287.786 154.982C288.675 154.982 289.354 154.79 289.822 154.406C290.29 154.022 290.524 153.474 290.524 152.762C290.524 152.051 290.29 151.505 289.822 151.126C289.354 150.747 288.675 150.557 287.786 150.557H285.398V154.982H287.786ZM307.535 159.167L307.521 152.004L303.968 157.973H303.322L299.768 152.046V159.167H298.42V149.335H299.571L303.673 156.246L307.718 149.335H308.869L308.883 159.167H307.535ZM322.313 156.709H317.088L316.007 159.167H314.56L319.012 149.335H320.403L324.869 159.167H323.394L322.313 156.709ZM321.821 155.586L319.701 150.768L317.58 155.586H321.821ZM332.006 150.557H328.636V149.335H336.768V150.557H333.397V159.167H332.006V150.557ZM342.514 149.335H343.919V159.167H342.514V149.335ZM355.523 159.28C354.53 159.28 353.636 159.062 352.84 158.626C352.044 158.191 351.419 157.59 350.965 156.822C350.511 156.054 350.284 155.197 350.284 154.251C350.284 153.306 350.511 152.449 350.965 151.681C351.419 150.913 352.044 150.311 352.84 149.876C353.636 149.441 354.53 149.223 355.523 149.223C356.506 149.223 357.395 149.441 358.191 149.876C358.987 150.311 359.609 150.911 360.059 151.674C360.509 152.437 360.733 153.296 360.733 154.251C360.733 155.206 360.509 156.066 360.059 156.829C359.609 157.592 358.987 158.191 358.191 158.626C357.395 159.062 356.506 159.28 355.523 159.28ZM355.523 158.03C356.243 158.03 356.892 157.866 357.468 157.538C358.044 157.21 358.498 156.758 358.83 156.182C359.162 155.607 359.329 154.963 359.329 154.251C359.329 153.539 359.162 152.896 358.83 152.32C358.498 151.744 358.044 151.292 357.468 150.964C356.892 150.637 356.243 150.473 355.523 150.473C354.802 150.473 354.148 150.637 353.563 150.964C352.978 151.292 352.519 151.744 352.187 152.32C351.854 152.896 351.688 153.539 351.688 154.251C351.688 154.963 351.854 155.607 352.187 156.182C352.519 156.758 352.978 157.21 353.563 157.538C354.148 157.866 354.802 158.03 355.523 158.03ZM375.553 149.335V159.167H374.401L368.502 151.835V159.167H367.098V149.335H368.249L374.149 156.667V149.335H375.553ZM396.539 156.709H391.314L390.232 159.167H388.786L393.238 149.335H394.629L399.095 159.167H397.62L396.539 156.709ZM396.048 155.586L393.926 150.768L391.806 155.586H396.048ZM411.443 154.195H412.792V158.03C412.304 158.432 411.738 158.741 411.092 158.957C410.446 159.172 409.772 159.28 409.07 159.28C408.077 159.28 407.182 159.062 406.387 158.626C405.591 158.191 404.966 157.592 404.512 156.829C404.058 156.066 403.831 155.206 403.831 154.251C403.831 153.296 404.058 152.435 404.512 151.667C404.966 150.899 405.593 150.3 406.394 149.869C407.194 149.438 408.096 149.223 409.098 149.223C409.884 149.223 410.598 149.352 411.239 149.609C411.881 149.867 412.426 150.244 412.876 150.74L412.005 151.611C411.219 150.852 410.268 150.473 409.154 150.473C408.405 150.473 407.733 150.635 407.138 150.958C406.544 151.281 406.078 151.73 405.741 152.306C405.404 152.882 405.235 153.53 405.235 154.251C405.235 154.963 405.404 155.607 405.741 156.182C406.078 156.758 406.544 157.21 407.138 157.538C407.733 157.866 408.4 158.03 409.139 158.03C410.02 158.03 410.788 157.819 411.443 157.398V154.195ZM426.825 157.945V159.167H419.69V149.335H426.628V150.557H421.094V153.577H426.024V154.771H421.094V157.945H426.825ZM441.771 149.335V159.167H440.62L434.72 151.835V159.167H433.316V149.335H434.468L440.367 156.667V149.335H441.771ZM453.333 159.28C452.349 159.28 451.462 159.062 450.671 158.626C449.88 158.191 449.26 157.592 448.81 156.829C448.36 156.066 448.136 155.206 448.136 154.251C448.136 153.296 448.36 152.437 448.81 151.674C449.26 150.911 449.882 150.311 450.678 149.876C451.474 149.441 452.363 149.223 453.347 149.223C454.114 149.223 454.817 149.352 455.453 149.609C456.09 149.867 456.633 150.248 457.083 150.754L456.17 151.639C455.43 150.862 454.508 150.473 453.403 150.473C452.672 150.473 452.012 150.637 451.423 150.964C450.833 151.292 450.371 151.744 450.039 152.32C449.707 152.896 449.54 153.539 449.54 154.251C449.54 154.963 449.707 155.607 450.039 156.182C450.371 156.758 450.833 157.21 451.423 157.538C452.012 157.866 452.672 158.03 453.403 158.03C454.498 158.03 455.421 157.636 456.17 156.85L457.083 157.735C456.633 158.24 456.088 158.624 455.447 158.886C454.805 159.149 454.1 159.28 453.333 159.28ZM466.902 155.768V159.167H465.512V155.74L461.607 149.335H463.11L466.256 154.518L469.416 149.335H470.807L466.902 155.768ZM591.971 76.4798C580.298 76.4798 570.845 85.9324 570.845 97.6055C570.845 109.279 580.298 118.731 591.971 118.731C603.644 118.731 613.097 109.279 613.097 97.6055C613.097 85.9324 603.644 76.4798 591.971 76.4798ZM245.687 114.634C250.199 119.215 255.947 121.505 262.931 121.505C269.915 121.505 275.664 119.215 280.176 114.634C284.688 110.053 286.945 104.377 286.945 97.6066C286.945 90.8348 284.688 85.1584 280.176 80.578C275.664 75.9972 269.915 73.7068 262.931 73.7068C255.947 73.7068 250.199 75.9972 245.687 80.578C241.173 85.1584 238.918 90.8348 238.918 97.6066C238.918 104.377 241.173 110.053 245.687 114.634ZM259.707 136.442C248.748 136.442 239.535 132.658 232.067 125.089C224.601 117.522 220.867 108.36 220.867 97.6066C220.867 86.8516 224.601 77.6904 232.067 70.1223C239.535 62.5545 248.748 58.7697 259.707 58.7697C265.187 58.7697 270.237 59.8907 274.858 62.1305C279.477 64.3717 283.023 67.085 285.494 70.2719V40.9606H303.222V134.948H285.494V124.94C283.023 128.127 279.477 130.84 274.858 133.081C270.237 135.321 265.187 136.442 259.707 136.442ZM344.072 136.442C334.832 136.442 327.525 133.578 322.154 127.853C316.781 122.127 314.095 114.484 314.095 104.925V60.2641H331.823V102.237C331.823 108.211 333.22 112.916 336.014 116.352C338.807 119.787 342.783 121.505 347.94 121.505C353.957 121.505 358.738 119.388 362.283 115.157C365.829 110.925 367.601 104.875 367.601 97.0079V60.2641H385.33V134.948H367.601V124.79C362.875 132.558 355.031 136.442 344.072 136.442ZM397.17 134.948V60.2641H414.898V70.4216C419.948 62.6539 428.114 58.7697 439.395 58.7697C448.743 58.7697 456.21 61.6085 461.797 67.2846C467.384 72.9599 470.177 80.5284 470.177 89.9882V134.948H452.449V92.6762C452.449 86.7019 450.946 82.0471 447.937 78.7112C444.928 75.3747 440.846 73.7068 435.688 73.7068C429.563 73.7068 424.568 75.8475 420.7 80.1301C416.832 84.4115 414.898 90.4361 414.898 98.2038V134.948H397.17ZM492.159 154.251L503.575 130.915L468.925 60.2641H488.426L513.083 113.14L537.903 60.2641H557.565L511.651 154.251H511.648L509.247 159.167H489.755L492.159 154.251ZM591.971 58.7519C613.429 58.7519 630.825 76.1472 630.825 97.6055C630.825 119.064 613.429 136.459 591.971 136.459C570.513 136.459 553.118 119.064 553.118 97.6055C553.118 76.1472 570.513 58.7519 591.971 58.7519Z" fill="#0D90CF"/>
<path d="M61.6407 137.846C61.7144 138.262 61.734 139.275 60.3307 139.691C47.2834 141.995 45.9224 141.945 45.871 141.943C44.3618 141.849 42.8546 139.841 43.81 138.665C44.05 138.369 44.3807 138.288 44.6464 138.222C51.6548 137.235 52.5555 137.108 58.8268 135.962C58.9474 135.94 59.1122 135.929 59.235 135.926C60.2082 135.906 61.4355 136.688 61.6407 137.846ZM102.748 127.854C102.785 128.287 102.7 129.36 101.102 129.963C85.8282 134.102 76.2505 136.2 76.2372 136.201C74.6544 136.319 73.1565 134.711 74.0137 133.287C74.3705 132.695 74.8532 132.531 75.3203 132.373C79.3867 131.367 92.7001 128.14 96.7393 127.028C97.804 126.735 99.2039 126.236 100.298 126.089C101.247 125.961 102.638 126.571 102.748 127.854ZM137.308 116.26C137.321 116.71 137.184 117.836 135.642 118.57C120.868 123.918 118.778 124.408 118.764 124.41C117.339 124.66 115.96 123.446 116.552 121.911C116.91 120.984 117.766 120.618 118.131 120.461C122.2 119.092 127.63 117.271 131.661 115.792C132.686 115.416 134.024 114.808 135.09 114.575C135.991 114.378 137.271 114.923 137.308 116.26ZM44.1834 24.7332C43.7639 25.144 43.1701 25.6565 42.7226 25.7623C39.5958 25.8731 39.0966 25.799 39.027 25.7627C39.0501 25.2396 41.2921 23.4553 41.9259 23.331C42.7219 23.3487 43.7851 23.3661 44.581 23.3287C44.7621 23.3204 45.0108 23.2761 45.1865 23.323C45.2867 23.6409 44.2968 24.6224 44.1834 24.7332ZM57.9848 14.1497C57.1381 14.782 56.9662 14.841 56.8838 14.869C56.5633 14.903 56.1351 14.9472 55.8142 14.9744C55.8096 14.9703 55.8036 14.9638 55.7994 14.9593C56.0882 14.5897 58.1518 13.3621 58.4999 13.2423C58.7044 13.223 58.9773 13.1973 59.181 13.1739C59.1224 13.2725 58.7199 13.6006 57.9848 14.1497ZM55.5598 23.1272C55.409 23.4409 55.0757 23.9946 54.5367 24.1779C49.8954 25.0348 49.4132 25.0419 49.3735 25.0397C49.2389 25.0329 49.1214 24.6939 49.6422 23.9323C49.6709 23.8896 50.366 22.8823 51.0433 22.6744C52.162 22.4968 53.6542 22.2587 54.7669 22.0471C55.0095 22.0009 55.3327 21.8883 55.5783 21.9125C55.8323 21.9382 55.878 22.4628 55.5598 23.1272ZM85.381 5.66468C85.6502 5.65523 85.9192 5.64768 86.188 5.64201L86.1955 5.64163L86.2182 5.64125L86.2481 5.64088C86.4461 5.6371 86.646 5.63407 86.8494 5.63181C86.3603 5.63672 85.8709 5.64767 85.381 5.66468ZM65.6568 16.078C65.7014 16.2508 65.7638 16.6714 65.3968 16.8415C60.7105 18.1148 59.9051 18.2127 59.8995 18.2127C59.6939 18.2207 59.5729 17.7418 59.9437 17.0399C60.2067 16.5437 60.4286 16.4522 60.5121 16.4178C61.3028 16.2326 62.9469 15.8464 64.4001 15.4442C64.5744 15.3962 64.8045 15.3104 64.9856 15.2979C65.1489 15.2874 65.5287 15.5754 65.6568 16.078ZM56.428 18.2471C56.1857 18.5793 55.8198 19.0019 55.4555 19.127C51.8434 19.7279 51.5437 19.6886 51.5414 19.6879C51.4163 19.3413 53.1103 17.8136 53.6961 17.6314C54.3798 17.5422 55.2915 17.4243 55.971 17.3094C56.2454 17.2629 56.6105 17.1461 56.8879 17.1707C57.0542 17.3839 56.4537 18.212 56.428 18.2471ZM79.488 6.16283C79.6528 6.14091 79.818 6.11936 79.9827 6.09857L79.488 6.16283ZM81.682 6.16207C84.6527 6.41719 85.4079 7.31445 83.9233 8.83609C82.351 10.4488 78.0934 12.5963 72.534 14.5806C72.0597 14.7495 69.4314 15.6593 69.2946 15.6574C68.6468 15.6472 67.982 14.8281 68.0254 14.5107C68.0349 14.4457 68.0939 14.3633 68.1513 14.3308C78.6569 10.8687 82.0048 8.025 79.8822 7.00566C78.9075 6.53813 77.7543 6.57442 76.8231 6.58235C78.4876 6.27848 79.9688 6.01543 81.682 6.16207ZM65.4565 12.4565C65.579 12.5945 65.7592 12.8405 65.5945 12.9433C63.6336 13.5272 63.4738 13.542 63.4617 13.539C63.165 13.4668 63.1763 12.6432 63.3241 12.3873C63.3377 12.3643 63.3653 12.3389 63.3887 12.3246C63.7107 12.2354 64.1401 12.1179 64.4595 12.0203C64.5437 11.9954 64.6552 11.941 64.7426 11.9466C64.8495 11.9534 65.2195 12.1897 65.4565 12.4565ZM61.1811 13.5877C60.9517 13.9505 60.7521 14.1698 60.5885 14.2412C59.3348 14.4967 59.3291 14.4952 59.2826 14.4865C59.2411 14.2295 60.4195 13.0714 60.7298 12.9331C61.5424 12.774 61.5424 12.774 61.5583 12.7789C61.5795 12.9475 61.1845 13.5813 61.1811 13.5877ZM74.3293 8.22569C74.4624 8.45133 74.3558 8.74538 74.0073 9.10708C72.7113 10.4541 68.3993 12.0305 67.8644 12.1946C67.5916 12.2785 66.4501 11.7837 66.1342 11.5222C66.133 11.5082 66.1311 11.4889 66.1304 11.4749C70.0373 10.0429 71.2671 9.2764 70.7932 8.67206C70.5112 8.30809 69.0924 8.64106 68.6733 8.64371C69.5467 8.22343 73.5466 6.90248 74.3293 8.22569ZM71.8575 7.69203H71.859L71.8084 7.70525L71.8575 7.69203ZM38.7447 61.7627C38.6298 62.1656 38.2394 63.1354 37.0874 63.4431C26.9087 64.8321 25.9431 64.7368 25.9068 64.7319C25.1868 64.6378 24.8682 63.2632 25.8002 61.9653C26.3221 61.2389 26.8365 61.1251 27.0837 61.0707C29.6341 60.8129 33.0357 60.4652 35.5737 60.1035C36.2657 60.0048 37.1875 59.7671 37.886 59.8083C38.5432 59.8469 39.0584 60.6595 38.7447 61.7627ZM66.6603 56.0367C66.6508 56.4241 66.4936 57.3743 65.238 57.8203C53.3461 60.6413 52.0853 60.7471 52.0762 60.7471C51.0486 60.7766 50.3331 59.5135 51.0365 58.2296C51.4503 57.4741 52.0588 57.2809 52.351 57.1883C55.3705 56.5428 59.3975 55.6826 62.3985 54.9577C63.1884 54.7668 64.2289 54.4191 65.0392 54.3541C65.7339 54.2985 66.6867 54.9112 66.6603 56.0367ZM31.2635 54.1976C31.0934 54.5805 30.5945 55.4951 29.6289 55.7177C27.3324 55.9022 22.5536 56.2858 22.1518 56.1569C21.5584 55.966 21.6862 54.6013 22.6303 53.4674C23.1908 52.7946 23.616 52.716 23.8205 52.6779C25.8935 52.5796 28.6556 52.3993 30.7242 52.2338C30.8032 52.2273 30.9109 52.227 30.9887 52.2425C31.4944 52.346 31.7257 53.156 31.2635 54.1976ZM53.2037 50.6569C53.1326 51.0304 52.8472 51.9359 51.7281 52.2923C41.5087 54.2808 40.4375 54.3027 40.43 54.3019C39.5951 54.266 39.2636 52.9946 40.0815 51.7916C40.5611 51.0871 41.0835 50.9408 41.3344 50.8705C43.8981 50.44 47.3174 49.8655 49.8667 49.3572C50.5478 49.2215 51.4473 48.9482 52.1412 48.9354C52.7233 48.9255 53.4089 49.5749 53.2037 50.6569ZM44.4049 37.203C44.2435 37.5322 43.7794 38.3221 42.9608 38.5519C41.1398 38.8006 36.8757 39.383 36.5609 39.3168C36.1206 39.2242 36.2408 38.2752 37.0095 37.2997C37.6596 36.4746 38.1441 36.3544 38.3267 36.3095C40.0554 36.1144 42.3583 35.8261 44.0825 35.591C44.1464 35.5823 44.2337 35.5778 44.2972 35.5872C44.7035 35.6469 44.8433 36.3106 44.4049 37.203ZM97.9355 46.727C98.0557 47.0834 98.211 47.9705 97.0549 48.5102C85.6195 52.3366 83.9649 52.6816 83.9554 52.6828C82.684 52.8268 81.4401 51.4979 82.0891 50.2026C82.3472 49.6871 82.7135 49.5344 83.0684 49.3874C86.0893 48.452 90.1194 47.2089 93.1143 46.1918C93.8782 45.9325 94.8775 45.5013 95.6716 45.3588C96.381 45.2322 97.5851 45.691 97.9355 46.727ZM139.502 21.0341C148.525 28.6658 113.607 42.3163 113.091 42.3159C111.534 42.314 110.199 40.6714 110.959 39.6925C111.063 39.5584 111.264 39.4385 111.412 39.3546C133.312 29.8926 141.601 23.0112 136.054 18.8983C136.201 18.9868 136.348 19.0752 136.495 19.1636L139.502 21.0341ZM130.789 16.0176C144.704 25.4902 75.8169 47.2372 68.8052 48.3216C67.1097 48.5835 66.5499 46.9568 67.1996 45.8993C67.3882 45.5916 67.8338 45.3301 68.1574 45.1698C112.091 33.3796 134.865 19.6074 127.826 14.6214C127.745 14.564 127.652 14.5073 127.553 14.4525C128.611 14.9548 129.727 15.4903 130.789 16.0176ZM77.7891 36.5359C77.8575 36.8503 77.9104 37.6259 76.93 38.0367C70.5211 39.8841 58.5914 43.3228 43.5999 45.8169C43.553 45.8248 38.9053 46.5766 38.7141 46.5229C37.8951 46.2927 38.1649 45.1282 38.6056 44.4132C39.1608 43.5129 39.7512 43.3538 39.9738 43.294C44.3127 42.6462 57.5168 40.6741 74.9114 35.5536C75.7863 35.2954 77.4153 34.8158 77.7891 36.5359ZM119.232 11.018L121.18 11.7301C133.976 17.7807 94.0252 32.6396 89.9584 33.8369C88.5536 34.2504 87.1155 32.7367 87.5928 31.7703C87.7187 31.517 87.9428 31.4074 88.1227 31.3194C118.087 20.522 123.222 13.5624 118.514 10.8831C118.129 10.6646 117.574 10.4515 117.156 10.3116L119.232 11.018ZM61.9022 33.6717C61.8728 33.9783 61.7095 34.7255 60.8383 35.0411C52.7754 36.9032 51.8563 36.9784 51.8506 36.9784C51.1835 36.9682 50.9284 35.9198 51.5905 34.9012C51.9772 34.3075 52.3873 34.1733 52.5838 34.109C54.5749 33.6963 57.2304 33.1468 59.2097 32.6811C59.7309 32.5583 60.4184 32.3221 60.9536 32.2971C61.4075 32.276 61.9877 32.7885 61.9022 33.6717ZM30.9967 38.5178C30.6777 38.9317 30.0472 39.6438 29.4059 39.7621C27.3301 39.7345 25.3697 39.708 24.9744 39.5516C24.7223 38.9204 26.5965 36.6818 27.4813 36.5574C28.6817 36.6379 30.2854 36.6957 31.4884 36.712C31.5345 36.7131 31.5991 36.7184 31.6392 36.7415C31.9196 36.8979 31.6312 37.6947 30.9967 38.5178ZM111.045 8.53675C118.498 10.837 112.128 15.66 105.472 19.3008C105.107 19.5008 69.5928 36.4576 70.9682 30.2369C71.0918 29.6806 71.4894 29.5135 71.6803 29.4326C102.925 20.149 115.32 11.1764 108.884 8.1879C108.542 8.02878 108.11 7.89422 107.685 7.7797C107.988 7.84282 108.286 7.90594 108.579 7.96868L111.045 8.53675ZM44.629 30.6145C44.3792 30.9868 43.8641 31.6384 43.2215 31.8122C37.9499 32.4011 37.406 32.3591 37.3614 32.3523C36.7461 32.2601 37.7053 31.0416 37.7461 30.9898C37.7858 30.9403 38.7269 29.7633 39.5002 29.5876C40.789 29.4961 42.5087 29.371 43.7923 29.2187C44.1422 29.1771 44.6158 29.035 44.9609 29.1042C45.244 29.1609 45.162 29.8189 44.629 30.6145ZM63.2436 26.9355C63.2266 27.2038 63.1102 27.8569 62.3936 28.1298C54.3031 30.0721 52.0441 30.4077 52.0328 30.4085C51.1918 30.4573 51.4307 29.3688 51.8011 28.7459C52.2338 28.0172 52.6726 27.8736 52.8385 27.8191C54.4649 27.4956 57.8495 26.8221 60.8289 26.0957C61.3085 25.9785 61.9412 25.7691 62.4333 25.7276C62.7878 25.6973 63.2912 26.1641 63.2436 26.9355ZM100.211 6.4478C106.01 7.37756 106.277 9.7137 101.007 13.3908C99.3373 14.5572 69.6635 29.6431 71.3873 23.5967C71.4792 23.2739 71.6685 23.1881 71.8518 23.1057C95.1625 15.8467 104.214 9.09952 99.4972 6.76982C98.5262 6.29057 97.1497 6.10122 96.0949 5.99842L95.8428 5.98255L100.211 6.4478ZM19.028 92.3221C18.9464 92.7639 18.6319 93.8146 17.4814 94.0312C9.24586 94.3165 7.47137 94.168 7.14633 94.0538C6.23168 93.7326 6.02192 91.4014 7.05638 90.3684C7.31604 90.1095 7.5394 90.0823 7.73632 90.0581C12.5998 90.1738 13.2242 90.1882 17.6485 89.9833C17.7381 89.9791 17.8586 89.9908 17.9471 90.0082C18.6497 90.1496 19.2522 91.1126 19.028 92.3221ZM31.1853 71.8476C31.0707 72.2675 30.6769 73.2748 29.5 73.5571C24.2381 74.1017 22.2694 74.3058 22.0362 74.2283C20.8464 73.8319 21.1359 71.961 21.9417 71.0399C22.3737 70.5463 22.7006 70.4783 23.0169 70.4129C25.11 70.2281 27.9001 69.9718 29.9887 69.7432C30.0767 69.7337 30.1969 69.7315 30.2838 69.7466C31.1648 69.9015 31.434 70.9364 31.1853 71.8476ZM52.0554 87.6751C52.0214 88.12 51.7848 89.2024 50.3237 89.6412C37.0492 92.0855 35.9543 92.0632 35.9142 92.0609C34.6175 91.991 33.8154 90.1624 34.8529 88.8079C35.28 88.2515 35.6976 88.1423 36.1017 88.0368C39.5887 87.4854 44.2382 86.7465 47.7067 86.0874C48.4739 85.9422 49.4899 85.658 50.2707 85.6406C51.1895 85.6198 52.1488 86.4502 52.0554 87.6751ZM162.036 41.6156C170.812 58.1967 69.4246 85.8016 68.1521 85.6111C66.3458 85.3413 65.8968 83.0951 67.4358 82.0247C67.6403 81.8826 67.9657 81.7855 68.1925 81.6827C129.063 66.5003 164.836 47.0157 159.591 38.7061C160.083 39.2843 160.565 39.8547 161.018 40.3827L162.036 41.6156ZM83.3348 70.2149C83.3666 70.6348 83.2849 71.6711 81.8385 72.2282C64.602 76.9001 60.7155 77.5161 60.6871 77.5199C59.5975 77.6458 58.3661 76.3528 59.0729 74.8595C59.4686 74.0231 60.2143 73.7759 60.5329 73.6709C64.182 72.8174 71.7755 71.0411 78.4932 69.1872C79.2986 68.965 80.3607 68.6082 81.1861 68.4831C81.9991 68.3599 83.2399 68.9737 83.3348 70.2149ZM45.3793 79.1081C45.3184 79.5412 45.0301 80.5904 43.6622 80.9812C30.7544 83.1185 28.6053 83.162 28.5917 83.1613C27.4484 83.0845 26.9091 81.2363 27.9715 79.9316C28.4016 79.4033 28.7792 79.3129 29.1439 79.2256C35.325 78.4278 36.6111 78.2619 43.5311 77.0966C43.6377 77.0789 43.7824 77.0739 43.8905 77.0732C44.6321 77.0675 45.5573 77.8393 45.3793 79.1081ZM155.288 33.9688C164.052 46.6775 97.0843 67.8976 96.0816 67.6455C94.3321 67.206 93.964 65.052 95.4939 64.205C95.5979 64.1472 95.749 64.0947 95.8586 64.0474C135.944 50.8746 158.093 37.9358 152.318 31.0718L152.484 31.2287L154.959 33.6381L155.288 33.9688ZM89.7623 58.6752C89.8269 59.0687 89.8345 60.0423 88.5097 60.5937C75.5743 64.428 74.0035 64.682 73.9933 64.6828C72.63 64.795 71.4981 63.3116 72.3613 61.929C72.7053 61.3768 73.1157 61.2237 73.5122 61.0756C76.8771 60.1553 81.3653 58.9315 84.706 57.9269C85.5681 57.6676 86.6993 57.228 87.5894 57.0961C88.3688 56.9812 89.5725 57.5259 89.7623 58.6752ZM56.1324 67.511C56.0886 67.9252 55.8429 68.9344 54.5031 69.3618C48.3946 70.5966 45.8657 71.1076 45.5777 71.08C44.2277 70.9485 43.8947 69.5013 44.5194 68.3901C44.965 67.5979 45.6333 67.4006 45.9186 67.3163C48.4173 66.8356 51.7466 66.1874 54.2385 65.6741C54.3432 65.653 54.4849 65.6352 54.5911 65.6378C55.564 65.656 56.2409 66.4788 56.1324 67.511ZM145.616 25.3783V25.3787L145.621 25.3821L147.603 26.9585L147.748 27.0776C157.025 37.3583 103.993 55.6459 103.263 55.6164C101.568 55.5476 100.566 53.6575 101.663 52.5977C101.813 52.4537 102.066 52.3271 102.253 52.2383C141.067 38.1388 149.546 28.7077 144.535 24.5616C144.705 24.6882 144.871 24.8133 145.034 24.9361L145.59 25.359L145.616 25.3783ZM104.909 192.966C104.955 192.969 105.016 192.975 105.062 192.981C105.028 193.017 104.965 193.048 104.917 193.059C103.081 193.412 100.01 194.003 97.3519 194.206C96.8844 194.236 96.7124 194.242 96.5522 194.234C96.5809 194.225 96.6191 194.213 96.6474 194.204C99.2394 193.842 100.216 193.698 103.497 193.057C103.647 193.028 104.072 192.961 104.786 192.963C104.823 192.964 104.872 192.964 104.909 192.966ZM88.3911 189.448C88.5702 189.613 88.7626 189.916 88.0396 190.092C81.275 191.186 79.9385 191.291 79.6898 191.297C78.6762 191.322 76.9145 190.757 77.0733 190.361C77.1141 190.259 77.3117 190.22 77.4561 190.192C80.434 189.803 83.3658 189.098 86.3705 188.894C86.9953 188.851 87.9791 189.069 88.3911 189.448ZM71.4384 187.898C71.6999 188.097 72.0314 188.452 71.3201 188.584C67.5575 188.911 66.0004 189.045 65.6183 189.004C63.9659 188.822 62.4042 187.926 62.7262 187.641C62.7969 187.579 62.9363 187.574 63.0289 187.561C64.7569 187.444 67.0598 187.275 68.7844 187.116C68.863 187.108 68.9688 187.104 69.0482 187.108C69.9436 187.143 70.9667 187.537 71.4384 187.898ZM93.9375 184.084C94.0346 184.319 94.0585 184.754 93.1279 185.022C85.1981 186.648 83.7918 186.848 83.5552 186.858C82.2214 186.916 80.8698 186.101 81.363 185.537C81.498 185.383 81.7614 185.317 81.953 185.268C84.5658 184.789 88.0494 184.146 90.6478 183.597C91.0636 183.508 91.6146 183.364 92.0372 183.323C92.7579 183.251 93.7157 183.546 93.9375 184.084ZM77.87 176.091C77.9743 176.35 78.0922 176.983 76.9482 177.289C66.7185 179.06 65.3121 179.145 65.1341 179.143C63.744 179.134 62.0349 177.974 62.6653 177.204C62.8241 177.01 63.1238 176.942 63.3426 176.893C66.3485 176.455 70.3563 175.867 73.3459 175.331C74.0152 175.212 74.9015 174.995 75.58 174.957C76.4285 174.91 77.5778 175.365 77.87 176.091ZM52.2077 165.959C52.3393 166.277 52.5188 167.044 51.3506 167.297C45.7455 167.877 43.6479 168.094 43.29 168.033C41.4017 167.707 40.3158 166.138 40.806 165.479C40.9682 165.261 41.2547 165.209 41.4852 165.167C43.8565 164.958 47.0181 164.668 49.3852 164.409C49.4925 164.397 49.6377 164.391 49.7454 164.399C50.9189 164.486 51.9186 165.261 52.2077 165.959ZM36.1032 159.573C36.3152 160.095 36.3606 160.753 35.3779 160.918C29.8208 161.111 28.6651 161.15 28.0539 160.96C26.9412 160.612 25.2881 158.653 26.1237 158.029C26.2348 157.946 26.4314 157.923 26.5686 157.906C28.6182 157.874 31.3508 157.823 33.3982 157.733C33.4983 157.729 33.6329 157.732 33.7315 157.749C34.8726 157.949 35.8057 158.838 36.1032 159.573ZM31.7197 132.21C31.7669 132.65 31.7356 133.704 30.4415 133.985C26.8891 134.27 20.2764 134.801 19.573 134.633C18.0873 134.278 17.0755 132.036 17.9335 130.998C18.1671 130.714 18.466 130.664 18.706 130.624C21.8563 130.474 26.0538 130.2 29.1976 129.949C29.3269 129.939 29.5007 129.935 29.6296 129.951C30.5344 130.061 31.59 130.995 31.7197 132.21ZM86.5138 121.725C86.5357 122.184 86.4087 123.314 84.7676 123.898C61.6407 129.618 52.0883 130.992 52.015 131C49.8198 131.244 48.7759 129.07 49.5621 127.808C49.9306 127.216 50.4011 127.083 50.8562 126.955C62.8037 124.755 69.5531 123.349 83.6432 119.845C83.7793 119.811 83.9656 119.792 84.1047 119.772C85.0205 119.637 86.4491 120.348 86.5138 121.725ZM46.1348 109.306C46.1303 109.762 45.9647 110.865 44.5304 111.262C40.19 111.925 33.6314 112.927 32.4771 112.91C32.4642 112.91 31.1939 112.869 30.7578 111.05C30.6777 109.783 31.1512 109.046 32.2057 108.796C35.6678 108.35 40.2777 107.699 43.728 107.173C43.8652 107.151 44.0508 107.139 44.1899 107.14C44.4257 107.141 45.6283 107.232 46.0978 108.884C46.1091 109.01 46.1363 109.179 46.1348 109.306ZM119.825 188.914C119.731 188.967 119.384 189.156 118.875 189.336C112.15 191.517 111.927 191.358 111.832 191.291C111.837 191.219 111.844 191.111 112.364 190.952C115.393 190.104 116.51 189.785 119.832 188.699C119.989 188.648 120.047 188.646 120.099 188.644C120.108 188.656 120.12 188.673 120.129 188.685C120.086 188.743 120.061 188.762 119.943 188.843C119.908 188.864 119.861 188.893 119.825 188.914ZM126.541 186.408C123.328 187.786 122.788 187.94 122.766 187.946C122.846 187.874 122.846 187.874 123.176 187.691C123.933 187.282 124.278 187.128 124.537 187.022C126.695 186.174 128.734 185.373 131.223 184.14C129.826 184.836 127.966 185.772 126.541 186.408ZM107.092 191.184C107.159 191.287 107.134 191.439 106.636 191.581C101.669 192.72 100.758 192.862 100.626 192.879C99.8389 192.98 98.7262 192.816 98.9257 192.566C98.976 192.503 99.1427 192.461 99.253 192.434C101.491 191.973 103.692 191.34 105.952 190.98C106.383 190.912 106.961 190.984 107.092 191.184ZM92.4824 193.989C92.8365 194.04 92.8917 194.07 92.9458 194.099C92.9046 194.133 92.8335 194.154 92.7817 194.163C89.8674 194.491 86.8535 194.83 85.1781 194.42C85.2087 194.406 85.2488 194.387 85.2794 194.374C87.021 194.242 88.7494 193.974 90.4947 193.88C91.1108 193.848 92.0277 193.924 92.4824 193.989ZM142.041 177.61V177.61C140.937 178.352 139.47 179.348 138.348 180.063C130.327 184.715 114.392 190.283 113.876 189.321C113.955 189.09 114.073 188.881 114.725 188.659C127.764 184.79 136.947 181 142.795 177.073L142.397 177.357L142.041 177.61ZM117.65 185.846C117.602 185.959 117.385 186.349 116.6 186.63C108.382 189.016 106.391 189.403 106.372 189.407C105.782 189.519 104.92 189.258 105.11 188.806C105.223 188.536 105.643 188.406 105.823 188.35C109.533 187.4 113.154 186.125 116.907 185.33C117.347 185.237 117.843 185.388 117.65 185.846ZM96.1686 191.234C96.3541 191.377 96.4535 191.579 95.873 191.726C91.971 192.435 89.7434 192.809 89.2528 192.837C88.3121 192.892 86.7715 192.55 86.8997 192.241C86.9329 192.162 87.1106 192.124 87.2402 192.096C89.641 191.716 92.0035 191.114 94.4285 190.88C95.0362 190.822 95.8492 190.987 96.1686 191.234ZM148.003 173.063C140.045 179.028 124.705 184.3 123.892 184.142C123.863 184.097 123.823 184.036 123.794 183.991C123.953 183.262 124.755 182.839 125.22 182.652C138.368 178.023 147.163 173.815 151.364 170.145L151.363 170.146L148.003 173.063ZM109.044 184.817C109.047 184.986 108.956 185.41 108.066 185.704C99.6639 187.842 98.6404 187.977 98.6309 187.978C97.6876 188.09 96.6119 187.589 96.9657 187.024C97.1135 186.789 97.4079 186.702 97.6675 186.625C101.027 185.847 104.306 184.735 107.722 184.192C108.341 184.093 109.037 184.326 109.044 184.817ZM156.048 165.578C148.227 172.859 118.404 184.732 118.443 181.963C118.444 181.932 118.468 181.208 119.741 180.726C146.452 172.189 155.5 165.974 158.557 162.826L158.323 163.089L156.082 165.541L156.048 165.578ZM123.135 176.181C123.057 176.418 122.763 177.015 121.716 177.424C111.998 180.438 110.807 180.654 110.796 180.656C109.886 180.808 109.077 180.24 109.525 179.472C109.8 179 110.38 178.796 110.628 178.709C116.296 177.085 117.167 176.835 121.819 175.371C121.904 175.345 122.021 175.318 122.108 175.3C122.683 175.184 123.38 175.43 123.135 176.181ZM164.42 155.516L162.887 157.581L162.872 157.601C161.59 159.039 159.444 161.444 151.942 165.364C151.774 165.453 135.067 173.805 134.648 172.351C134.583 172.124 134.87 170.988 136.407 170.284C142.445 167.906 160.821 160.67 165.366 154.181L164.42 155.516ZM100.901 177.145C100.928 177.388 100.87 177.992 99.7244 178.363C88.7936 180.972 87.5686 181.097 87.5577 181.098C86.3766 181.199 85.0398 180.371 85.5054 179.585C85.7016 179.255 86.0704 179.149 86.3958 179.056C92.5361 177.733 93.4798 177.53 98.7428 176.25C98.8437 176.226 98.9794 176.205 99.0818 176.191C99.8782 176.086 100.822 176.452 100.901 177.145ZM76.0354 182.368C76.213 182.632 76.3688 183.11 75.4254 183.338C65.698 184.769 63.8442 184.791 63.8283 184.79C62.6744 184.777 60.7714 183.76 61.1089 183.174C61.1955 183.023 61.44 182.977 61.6188 182.945C66.6546 182.406 67.7027 182.294 73.4181 181.436C73.5122 181.422 73.6396 181.413 73.7348 181.409C74.4998 181.379 75.6325 181.765 76.0354 182.368ZM168.683 149.069C161.023 159.388 112.151 178.199 111.255 174.135C111.231 174.031 111.076 173.103 112.644 172.529C144.064 163.2 165.777 153.089 170.748 145.474L170.7 145.56L168.683 149.069ZM129.618 162.309C129.538 162.627 129.217 163.425 127.959 163.955C88.7426 176.928 90.0178 173.557 90.4365 172.449C90.6539 171.876 91.3372 171.661 91.6286 171.569C101.819 169.109 112.267 166.465 127.976 161.206C129.052 160.846 129.85 161.382 129.618 162.309ZM173.51 140.013C172.57 141.557 170.821 144.43 162.693 149.1C162.502 149.21 143.419 159.643 142.764 157.678C142.618 157.238 142.926 155.856 144.559 155.046C163.006 147.291 172.16 141.664 175.171 136.231L173.51 140.013ZM108.392 161.818C108.383 162.145 108.212 162.962 106.824 163.464C90.48 167.893 86.7734 168.491 86.7432 168.495C85.5258 168.658 83.941 167.562 84.7087 166.431C85.0088 165.988 85.4566 165.849 85.8516 165.727C89.777 164.809 97.0836 163.099 103.794 161.249C104.598 161.027 105.66 160.68 106.482 160.538C107.278 160.399 108.418 160.829 108.392 161.818ZM71.6292 170.431C71.7301 170.724 71.8329 171.443 70.6001 171.769C58.6802 173.741 56.301 173.848 56.2843 173.848C54.8867 173.834 53.1152 172.442 53.7993 171.6C53.972 171.388 54.2702 171.324 54.511 171.273C60.6799 170.476 61.9638 170.31 68.8732 169.147C68.9851 169.128 69.1355 169.117 69.2485 169.112C70.1431 169.068 71.3511 169.622 71.6292 170.431ZM177.89 128.79L177.31 130.548C171.301 142.764 120.319 162.43 119.46 158.202C119.457 158.188 119.218 156.894 121.149 156.113C166.632 141.166 176.639 131.259 178.536 126.653C178.49 126.812 178.444 126.969 178.398 127.125L177.89 128.79ZM116.601 151.479C116.576 151.847 116.359 152.765 114.895 153.338C101.018 157.451 99.2689 157.75 99.2553 157.752C97.9491 157.928 96.6988 156.936 97.2578 155.718C97.5961 154.982 98.3924 154.702 98.7326 154.581C106.583 152.435 107.789 152.105 114.285 150.151C114.406 150.115 114.571 150.083 114.695 150.061C115.524 149.918 116.68 150.34 116.601 151.479ZM79.6218 161.195C79.68 161.532 79.6649 162.364 78.2646 162.782C71.706 164.108 68.9915 164.656 68.6393 164.644C66.6981 164.572 65.845 163.178 66.3379 162.34C66.6043 161.888 67.0488 161.766 67.4411 161.658C70.2735 161.113 74.0485 160.378 76.8741 159.797C76.9958 159.772 77.1606 159.748 77.2853 159.744C78.4475 159.7 79.4736 160.337 79.6218 161.195ZM180.068 120.737C179.238 122.891 177.679 126.897 162.71 134.756C162.394 134.921 130.799 150.444 129.642 147.202C129.636 147.185 129.157 145.527 131.347 144.554C171.136 130.101 179.511 121.251 180.783 117.061C180.698 117.538 180.609 118.02 180.519 118.497L180.09 120.638L180.068 120.737ZM68.4537 155.098C68.5198 155.462 68.5187 156.354 67.0911 156.757C53.644 159.179 52.207 159.197 52.1522 159.197C50.7485 159.186 49.197 157.746 49.7802 156.624C50.0213 156.16 50.4321 156.06 50.8297 155.964C58.2251 154.843 59.1757 154.698 65.619 153.505C65.743 153.482 65.9112 153.469 66.0374 153.462C67.031 153.413 68.2681 154.073 68.4537 155.098ZM181.762 110.614C179.925 117.142 168.595 124.41 145.022 134.179C144.424 134.428 84.4116 156.838 82.571 151.725C82.0932 150.398 83.4728 149.814 84.062 149.565C138.02 136.366 180.181 117.833 182.132 106.454L181.762 110.614ZM92.2046 140.522C92.2235 140.932 92.0954 141.946 90.5083 142.499C75.3687 146.253 73.6732 146.437 73.6607 146.437C72.0918 146.534 70.6397 145.007 71.5139 143.674C71.8798 143.117 72.384 142.959 72.8296 142.82C76.8877 141.907 82.2996 140.691 86.3324 139.674C87.3914 139.407 88.7864 138.949 89.8708 138.82C90.8077 138.709 92.1494 139.303 92.2046 140.522ZM57.1166 148.19C57.1835 148.581 57.1854 149.533 55.7616 149.913C44.3414 151.696 42.4229 151.837 42.1285 151.815C40.4156 151.686 39.0935 149.754 40.0165 148.728C40.2697 148.447 40.6163 148.369 40.8952 148.306C44.4661 147.845 49.2276 147.22 52.7811 146.638C53.3575 146.543 54.1243 146.364 54.7087 146.36C55.6985 146.353 56.9306 147.103 57.1166 148.19ZM182.333 99.0965V99.115L182.339 100.159L182.338 100.306C181.976 102.319 180.857 108.423 156.997 119.601C156.484 119.841 104.717 142.015 102.418 137.741C102.407 137.723 101.54 135.866 103.98 134.931C160.914 118.022 181.707 103.481 182.242 96.1322C182.25 96.311 182.257 96.489 182.264 96.6659L182.332 99.0871L182.333 99.0965ZM181.762 89.9066C181.529 92.731 180.412 95.8336 170.013 102.464C169.78 102.613 146.09 116.53 144.135 113.849C143.635 113.163 143.469 111.381 145.352 110.373C154.334 106.492 181.354 94.8169 181.226 86.0503C181.415 87.327 181.612 88.6722 181.762 89.9066ZM180.003 79.5571C179.997 83.3026 177.046 88.5422 156.748 98.7408C154.522 99.8596 108.329 120.158 105.461 116.808C104.796 116.031 104.653 114.215 106.734 113.359C152.633 98.869 179.622 84.5706 178.936 75.109C179.108 75.7776 179.569 77.6775 180.003 79.5571ZM177.078 69.5395C177.215 73.6576 172.737 78.3314 163.752 83.4436C150.58 90.9376 122.065 103.438 119.648 101.637C118.661 100.902 118.322 98.8591 120.44 97.884C168.645 80.5163 175.971 70.3275 175.604 65.5248C176.105 66.8473 176.604 68.2041 177.078 69.5395ZM79.8036 101.955C79.8206 102.414 79.6868 103.545 78.0809 104.121C59.8178 108.644 59.8178 108.644 59.0925 106.41C58.9565 105.14 59.4966 104.329 60.7427 103.93C64.7278 103.037 70.0418 101.85 74.0013 100.851C75.0474 100.588 76.4281 100.147 77.4985 100.012C77.5635 100.004 79.0946 99.8316 79.7416 101.534C79.7601 101.66 79.7987 101.827 79.8036 101.955ZM14.2893 112.795C14.2726 113.241 14.1165 114.298 13.019 114.467C9.41934 114.417 5.69802 114.367 4.63559 114.085C4.62728 114.083 3.83093 113.823 3.56674 111.967C3.52252 110.717 3.82374 110.08 4.48781 110.021C6.89385 110.184 10.1087 110.301 12.5204 110.335C12.6259 110.337 12.768 110.349 12.8708 110.373C13.1244 110.435 13.9744 110.759 14.2726 112.375C14.2775 112.501 14.2938 112.669 14.2893 112.795ZM172.993 59.1866C177.274 76.1185 93.6771 100.104 92.6408 99.589C91.9555 99.2481 91.7703 98.7957 91.5916 98.358C91.3792 97.0983 91.9068 96.2388 93.2062 95.7297C151.02 78.5593 173.971 63.1003 171.069 55.3965L172.993 59.1866ZM32.5807 101.039C32.5398 101.49 32.2987 102.574 30.9434 102.901C19.0847 104.223 17.6874 104.095 17.5672 104.076C16.453 103.901 15.7459 101.928 16.6439 100.654C17.0132 100.13 17.3741 100.063 17.7233 99.9968C24.0397 99.5508 24.8512 99.4933 30.6036 98.8127C30.7121 98.7998 30.8591 98.8017 30.9683 98.8093C31.8206 98.8694 32.6922 99.7999 32.5807 101.039ZM81.205 90.9955C81.2137 91.4471 81.0622 92.5572 79.4793 93.112C60.0416 97.7744 50.2076 99.8086 50.1755 99.8112C48.8693 99.9102 47.5389 98.1403 48.6527 96.5884C49.0768 95.9977 49.5368 95.8612 49.9827 95.7297C58.0569 94.1249 67.8799 91.7366 78.5575 89.1348C78.686 89.1042 78.8625 89.086 78.9936 89.0694C79.8788 88.9602 81.1805 89.6556 81.205 90.9955ZM166.102 47.1749L167.106 48.7196C167.404 49.1931 167.706 49.6848 168.007 50.1788C173.238 65.1749 96.658 88.5992 95.5971 88.0905C94.1828 87.4125 93.8619 85.2113 96.045 84.3216C149.952 67.548 169.925 52.9798 165.67 46.5414L166.056 47.108L166.096 47.1669L166.102 47.1749ZM99.4004 107.312C99.4322 107.771 99.3347 108.905 97.7484 109.533C79.6399 114.641 79.6399 114.641 78.8432 112.432C78.6667 111.167 79.18 110.339 80.4128 109.9C84.367 108.88 89.6402 107.521 93.5656 106.396C94.6023 106.1 95.9683 105.614 97.0337 105.445C97.0983 105.435 98.623 105.213 99.3248 106.894C99.3475 107.02 99.3914 107.185 99.4004 107.312ZM60.5295 117.029C60.5435 117.485 60.4226 118.594 59.0052 119.049C54.6951 119.887 48.1825 121.152 47.0287 121.181C47.0158 121.181 45.7448 121.192 45.2353 119.393C45.1045 118.13 45.5478 117.374 46.591 117.082C50.0326 116.497 54.6123 115.66 58.0388 114.995C58.1749 114.968 58.3597 114.948 58.4984 114.944C58.7346 114.935 59.9395 114.977 60.4755 116.609C60.4921 116.734 60.5261 116.902 60.5295 117.029ZM90.3315 5.721C94.89 6.09555 95.9872 7.45958 93.5875 9.78512C91.3391 11.9652 85.9529 14.7352 78.8107 17.3846C73.8746 19.2158 68.5247 20.8697 62.9102 22.301C60.7151 22.8604 60.6297 22.8823 60.5817 22.0304C60.5684 21.8025 60.6584 20.8984 61.333 20.6324C81.3358 15.6347 93.2697 8.98425 90.1886 6.59823C88.9247 5.61858 84.8806 5.68434 85.1974 5.67149C85.8709 5.64768 86.3603 5.63672 86.8494 5.63181C87.9103 5.64768 89.1046 5.67829 90.3315 5.721Z" fill="#0D90CF"/>
</svg>
