<?xml version="1.0" encoding="UTF-8"?>
<!DOCTYPE svg PUBLIC "-//W3C//DTD SVG 1.1//EN" "http://www.w3.org/Graphics/SVG/1.1/DTD/svg11.dtd">
<!-- Creator: CorelDRAW -->
<svg xmlns="http://www.w3.org/2000/svg" xml:space="preserve" width="215mm" height="100mm" version="1.1" style="shape-rendering:geometricPrecision; text-rendering:geometricPrecision; image-rendering:optimizeQuality; fill-rule:evenodd; clip-rule:evenodd"
viewBox="0 0 21500 10000"
 xmlns:xlink="http://www.w3.org/1999/xlink"
 xmlns:xodm="http://www.corel.com/coreldraw/odm/2003">
 <defs>
  <style type="text/css">
   <![CDATA[
    .fil0 {fill:#0D90CF}
    .fil1 {fill:#0D90CF;fill-rule:nonzero}
   ]]>
  </style>
 </defs>
 <g id="Слой_x0020_1">
  <metadata id="CorelCorpID_0Corel-Layer"/>
  <g id="_1920948368816">
   <path class="fil0" d="M8460.65 6305.96l37.17 0 0 260.13 -37.17 0 0 -260.13zm450.46 0l0 260.13 -30.47 0 -156.08 -193.99 0 193.99 -37.17 0 0 -260.13 30.48 0 156.08 193.98 0 -193.98 37.16 0zm226.74 32.33l0 90.67 130.44 0 0 31.96 -130.44 0 0 105.17 -37.16 0 0 -260.13 183.58 0 0 32.33 -146.42 0zm424.81 230.78c-26.26,0 -49.92,-5.76 -70.98,-17.29 -21.06,-11.52 -37.59,-27.43 -49.61,-47.75 -12.01,-20.31 -18.02,-42.98 -18.02,-68.01 0,-25.02 6.01,-47.69 18.02,-68 12.02,-20.32 28.55,-36.24 49.61,-47.76 21.06,-11.52 44.72,-17.28 70.98,-17.28 26.02,0 49.55,5.76 70.61,17.28 21.06,11.52 37.53,27.38 49.43,47.57 11.89,20.19 17.83,42.92 17.83,68.19 0,25.27 -5.94,48.01 -17.83,68.2 -11.9,20.19 -28.37,36.04 -49.43,47.56 -21.06,11.53 -44.59,17.29 -70.61,17.29zm0 -33.08c19.08,0 36.24,-4.33 51.47,-13.01 15.24,-8.67 27.25,-20.62 36.05,-35.86 8.79,-15.23 13.19,-32.27 13.19,-51.1 0,-18.83 -4.4,-35.86 -13.19,-51.09 -8.8,-15.24 -20.81,-27.2 -36.05,-35.87 -15.23,-8.67 -32.39,-13 -51.47,-13 -19.08,0 -36.36,4.33 -51.84,13 -15.48,8.67 -27.62,20.63 -36.42,35.87 -8.79,15.23 -13.19,32.26 -13.19,51.09 0,18.83 4.4,35.87 13.19,51.1 8.8,15.24 20.94,27.19 36.42,35.86 15.48,8.68 32.76,13.01 51.84,13.01zm480.18 30.1l-56.11 -79.9c-6.94,0.5 -12.39,0.75 -16.35,0.75l-64.29 0 0 79.15 -37.16 0 0 -260.13 101.45 0c33.69,0 60.2,8.05 79.52,24.15 19.33,16.1 28.99,38.28 28.99,66.52 0,20.07 -4.95,37.16 -14.86,51.29 -9.91,14.12 -24.04,24.4 -42.37,30.84l61.69 87.33 -40.51 0zm-73.57 -110.74c23.53,0 41.49,-5.08 53.88,-15.24 12.38,-10.16 18.58,-24.65 18.58,-43.48 0,-18.83 -6.2,-33.26 -18.58,-43.29 -12.39,-10.04 -30.35,-15.05 -53.88,-15.05l-63.18 0 0 117.06 63.18 0zm522.54 110.74l-0.37 -189.53 -94.02 157.94 -17.09 0 -94.03 -156.82 0 188.41 -35.67 0 0 -260.13 30.47 0 108.52 182.83 107.02 -182.83 30.47 0 0.37 260.13 -35.67 0zm391 -65.03l-138.25 0 -28.61 65.03 -38.28 0 117.81 -260.13 36.79 0 118.17 260.13 -39.02 0 -28.61 -65.03zm-13.01 -29.73l-56.11 -127.47 -56.12 127.47 112.23 0zm269.48 -133.04l-89.19 0 0 -32.33 215.17 0 0 32.33 -89.19 0 0 227.8 -36.79 0 0 -227.8zm278.02 -32.33l37.17 0 0 260.13 -37.17 0 0 -260.13zm344.18 263.11c-26.26,0 -49.93,-5.76 -70.98,-17.29 -21.06,-11.52 -37.6,-27.43 -49.62,-47.75 -12.01,-20.31 -18.02,-42.98 -18.02,-68.01 0,-25.02 6.01,-47.69 18.02,-68 12.02,-20.32 28.56,-36.24 49.62,-47.76 21.05,-11.52 44.72,-17.28 70.98,-17.28 26.01,0 49.54,5.76 70.6,17.28 21.06,11.52 37.53,27.38 49.43,47.57 11.89,20.19 17.83,42.92 17.83,68.19 0,25.27 -5.94,48.01 -17.83,68.2 -11.9,20.19 -28.37,36.04 -49.43,47.56 -21.06,11.53 -44.59,17.29 -70.6,17.29zm0 -33.08c19.07,0 36.23,-4.33 51.46,-13.01 15.24,-8.67 27.25,-20.62 36.05,-35.86 8.79,-15.23 13.19,-32.27 13.19,-51.1 0,-18.83 -4.4,-35.86 -13.19,-51.09 -8.8,-15.24 -20.81,-27.2 -36.05,-35.87 -15.23,-8.67 -32.39,-13 -51.46,-13 -19.08,0 -36.36,4.33 -51.85,13 -15.48,8.67 -27.62,20.63 -36.41,35.87 -8.8,15.23 -13.2,32.26 -13.2,51.09 0,18.83 4.4,35.87 13.2,51.1 8.79,15.24 20.93,27.19 36.41,35.86 15.49,8.68 32.77,13.01 51.85,13.01zm529.98 -230.03l0 260.13 -30.48 0 -156.08 -193.99 0 193.99 -37.16 0 0 -260.13 30.47 0 156.08 193.98 0 -193.98 37.17 0zm555.24 195.1l-138.24 0 -28.62 65.03 -38.27 0 117.8 -260.13 36.79 0 118.17 260.13 -39.02 0 -28.61 -65.03zm-13 -29.73l-56.12 -127.47 -56.11 127.47 112.23 0zm407.34 -36.79l35.68 0 0 101.45c-12.89,10.65 -27.87,18.83 -44.97,24.53 -17.09,5.7 -34.93,8.55 -53.51,8.55 -26.26,0 -49.93,-5.76 -70.98,-17.29 -21.06,-11.52 -37.59,-27.37 -49.61,-47.56 -12.02,-20.19 -18.02,-42.93 -18.02,-68.2 0,-25.27 6,-48.06 18.02,-68.38 12.02,-20.31 28.61,-36.17 49.79,-47.56 21.18,-11.4 45.03,-17.1 71.54,-17.1 20.81,0 39.7,3.41 56.67,10.22 16.97,6.81 31.4,16.79 43.3,29.92l-23.04 23.04c-20.81,-20.07 -45.96,-30.1 -75.44,-30.1 -19.82,0 -37.6,4.27 -53.33,12.82 -15.73,8.55 -28.05,20.44 -36.97,35.67 -8.92,15.24 -13.38,32.4 -13.38,51.47 0,18.83 4.46,35.87 13.38,51.1 8.92,15.24 21.24,27.19 36.97,35.86 15.73,8.68 33.38,13.01 52.95,13.01 23.29,0 43.61,-5.57 60.95,-16.72l0 -84.73zm406.97 99.22l0 32.33 -188.78 0 0 -260.13 183.58 0 0 32.33 -146.41 0 0 79.9 130.44 0 0 31.58 -130.44 0 0 83.99 151.61 0zm395.46 -227.8l0 260.13 -30.47 0 -156.08 -193.99 0 193.99 -37.16 0 0 -260.13 30.47 0 156.08 193.98 0 -193.98 37.16 0zm305.9 263.11c-26.02,0 -49.49,-5.76 -70.43,-17.29 -20.93,-11.52 -37.34,-27.37 -49.24,-47.56 -11.89,-20.19 -17.83,-42.93 -17.83,-68.2 0,-25.27 5.94,-48 17.83,-68.19 11.9,-20.19 28.37,-36.05 49.43,-47.57 21.06,-11.52 44.59,-17.28 70.61,-17.28 20.31,0 38.9,3.41 55.74,10.22 16.84,6.81 31.21,16.91 43.11,30.29l-24.16 23.41c-19.57,-20.56 -43.97,-30.84 -73.21,-30.84 -19.32,0 -36.79,4.33 -52.39,13 -15.61,8.67 -27.81,20.63 -36.61,35.87 -8.79,15.23 -13.19,32.26 -13.19,51.09 0,18.83 4.4,35.87 13.19,51.1 8.8,15.24 21,27.19 36.61,35.86 15.6,8.68 33.07,13.01 52.39,13.01 28.99,0 53.39,-10.4 73.21,-31.22l24.16 23.42c-11.9,13.38 -26.33,23.53 -43.29,30.47 -16.97,6.94 -35.62,10.41 -55.93,10.41zm359.03 -92.91l0 89.93 -36.79 0 0 -90.67 -103.31 -169.46 39.76 0 83.24 137.12 83.62 -137.12 36.79 0 -103.31 170.2zm3309.11 -2097.84c-308.85,0 -558.95,250.1 -558.95,558.95 0,308.85 250.1,558.95 558.95,558.95 308.85,0 558.95,-250.1 558.95,-558.95 0,-308.85 -250.1,-558.95 -558.95,-558.95zm-9162.1 1009.49c119.39,121.2 271.46,181.8 456.26,181.8 184.77,0 336.87,-60.6 456.26,-181.8 119.39,-121.19 179.1,-271.37 179.1,-450.51 0,-179.17 -59.71,-329.36 -179.1,-450.55 -119.39,-121.2 -271.49,-181.8 -456.26,-181.8 -184.8,0 -336.87,60.6 -456.26,181.8 -119.42,121.19 -179.1,271.38 -179.1,450.55 0,179.14 59.68,329.32 179.1,450.51zm370.95 577.01c-289.95,0 -533.71,-100.13 -731.3,-300.37 -197.55,-200.23 -296.34,-442.63 -296.34,-727.15 0,-284.56 98.79,-526.95 296.34,-727.19 197.59,-200.23 441.35,-300.37 731.3,-300.37 144.99,0 278.6,29.66 400.86,88.92 122.22,59.3 216.04,131.09 281.43,215.41l0 -775.53 469.04 0 0 2486.75 -469.04 0 0 -264.79c-65.39,84.32 -159.21,156.1 -281.43,215.39 -122.26,59.28 -255.87,88.93 -400.86,88.93zm2232.15 0c-244.48,0 -437.79,-75.77 -579.92,-227.26 -142.15,-151.48 -213.21,-353.7 -213.21,-606.62l0 -1181.66 469.05 0 0 1110.52c0,158.07 36.95,282.56 110.88,373.47 73.9,90.88 179.09,136.34 315.54,136.34 159.2,0 285.7,-56 379.5,-167.95 93.82,-111.99 140.71,-272.05 140.71,-480.2l0 -972.18 469.07 0 0 1976.01 -469.07 0 0 -268.75c-125.06,205.52 -332.6,308.28 -622.55,308.28zm1404.88 -39.53l0 -1976.01 469.05 0 0 268.75c133.63,-205.52 349.68,-308.29 648.17,-308.29 247.32,0 444.88,75.11 592.7,225.29 147.83,150.16 221.73,350.41 221.73,600.7l0 1189.56 -469.05 0 0 -1118.44c0,-158.07 -39.78,-281.23 -119.39,-369.49 -79.6,-88.28 -187.61,-132.41 -324.08,-132.41 -162.05,0 -294.22,56.64 -396.55,169.95 -102.34,113.28 -153.53,272.68 -153.53,478.2l0 972.19 -469.05 0zm2513.27 510.73l302.04 -617.43 -916.79 -1869.31 515.97 0 652.39 1399 656.68 -1399 520.23 0 -1214.8 2486.74 -0.08 0 -63.54 130.07 -515.73 0 63.63 -130.07zm2640.85 -2526.75c567.75,0 1028,460.25 1028,1028 0,567.75 -460.25,1028 -1028,1028 -567.75,0 -1028,-460.25 -1028,-1028 0,-567.75 460.25,-1028 1028,-1028z"/>
   <g>
    <path class="fil1" d="M3985.8 6001.96c1.95,11.01 2.47,37.82 -34.66,48.81 -345.21,60.96 -381.22,59.66 -382.58,59.59 -39.93,-2.48 -79.81,-55.6 -54.53,-86.73 6.35,-7.82 15.1,-9.98 22.13,-11.72 185.43,-26.1 209.26,-29.47 375.19,-59.78 3.19,-0.59 7.55,-0.88 10.8,-0.95 25.75,-0.55 58.22,20.15 63.65,50.78zm1087.63 -264.37c0.98,11.46 -1.28,39.86 -43.56,55.81 -404.11,109.52 -657.52,165.01 -657.87,165.04 -41.88,3.13 -81.51,-39.42 -58.83,-77.09 9.44,-15.67 22.21,-20.01 34.57,-24.2 107.59,-26.61 459.84,-111.98 566.71,-141.41 28.17,-7.75 65.21,-20.95 94.16,-24.84 25.11,-3.4 61.91,12.74 64.82,46.69zm914.41 -306.76c0.33,11.91 -3.29,41.7 -44.1,61.13 -390.88,141.5 -446.17,154.47 -446.54,154.52 -37.71,6.6 -74.21,-25.5 -58.53,-66.12 9.46,-24.53 32.1,-34.22 41.77,-38.36 107.67,-36.23 251.32,-84.4 357.98,-123.54 27.11,-9.96 62.51,-26.03 90.73,-32.21 23.84,-5.22 57.69,9.21 58.69,44.58zm-2463.93 -2421.64c-11.1,10.87 -26.81,24.43 -38.65,27.23 -82.73,2.93 -95.94,0.97 -97.78,0.01 0.61,-13.84 59.93,-61.05 76.7,-64.34 21.06,0.47 49.19,0.93 70.25,-0.06 4.79,-0.22 11.37,-1.39 16.02,-0.15 2.65,8.41 -23.54,34.38 -26.54,37.31zm365.16 -280.02c-22.4,16.73 -26.95,18.29 -29.13,19.03 -8.48,0.9 -19.81,2.07 -28.3,2.79 -0.12,-0.11 -0.28,-0.28 -0.39,-0.4 7.64,-9.78 62.24,-42.26 71.45,-45.43 5.41,-0.51 12.63,-1.19 18.02,-1.81 -1.55,2.61 -12.2,11.29 -31.65,25.82zm-64.16 237.53c-3.99,8.3 -12.81,22.95 -27.07,27.8 -122.8,22.67 -135.56,22.86 -136.61,22.8 -3.56,-0.18 -6.67,-9.15 7.11,-29.3 0.76,-1.13 19.15,-27.78 37.07,-33.28 29.6,-4.7 69.08,-11 98.52,-16.6 6.42,-1.22 14.97,-4.2 21.47,-3.56 6.72,0.68 7.93,14.56 -0.49,32.14zm789.02 -462.03c7.12,-0.25 14.24,-0.45 21.35,-0.6l0.2 -0.01 0.6 -0.01 0.79 -0.01c5.24,-0.1 10.53,-0.18 15.91,-0.24 -12.94,0.13 -25.89,0.42 -38.85,0.87zm-521.87 275.52c1.18,4.57 2.83,15.7 -6.88,20.2 -123.99,33.69 -145.3,36.28 -145.45,36.28 -5.44,0.21 -8.64,-12.46 1.17,-31.03 6.96,-13.13 12.83,-15.55 15.04,-16.46 20.92,-4.9 64.42,-15.12 102.87,-25.76 4.61,-1.27 10.7,-3.54 15.49,-3.87 4.32,-0.28 14.37,7.34 17.76,20.64zm-244.18 57.39c-6.41,8.79 -16.09,19.97 -25.73,23.28 -95.57,15.9 -103.5,14.86 -103.56,14.84 -3.31,-9.17 41.51,-49.59 57.01,-54.41 18.09,-2.36 42.21,-5.48 60.19,-8.52 7.26,-1.23 16.92,-4.32 24.26,-3.67 4.4,5.64 -11.49,27.55 -12.17,28.48zm610.13 -319.73c4.36,-0.58 8.73,-1.15 13.09,-1.7l-13.09 1.7zm-37.9 5.56c6.08,-0.97 12.17,-1.91 18.25,-2.8 -6.08,0.89 -12.17,1.83 -18.25,2.8zm95.95 -5.58c78.6,6.75 98.58,30.49 59.3,70.75 -41.6,42.67 -154.25,99.49 -301.34,151.99 -12.55,4.47 -82.09,28.54 -85.71,28.49 -17.14,-0.27 -34.73,-21.94 -33.58,-30.34 0.25,-1.72 1.81,-3.9 3.33,-4.76 277.96,-91.6 366.54,-166.84 310.38,-193.81 -25.79,-12.37 -56.3,-11.41 -80.94,-11.2 44.04,-8.04 83.23,-15 128.56,-11.12zm-429.3 166.54c3.24,3.65 8.01,10.16 3.65,12.88 -51.88,15.45 -56.11,15.84 -56.43,15.76 -7.85,-1.91 -7.55,-23.7 -3.64,-30.47 0.36,-0.61 1.09,-1.28 1.71,-1.66 8.52,-2.36 19.88,-5.47 28.33,-8.05 2.23,-0.66 5.18,-2.1 7.49,-1.95 2.83,0.18 12.62,6.43 18.89,13.49zm-113.12 29.93c-6.07,9.6 -11.35,15.4 -15.68,17.29 -33.17,6.76 -33.32,6.72 -34.55,6.49 -1.1,-6.8 30.08,-37.44 38.29,-41.1 21.5,-4.21 21.5,-4.21 21.92,-4.08 0.56,4.46 -9.89,21.23 -9.98,21.4zm347.88 -141.87c3.52,5.97 0.7,13.75 -8.52,23.32 -34.29,35.64 -148.38,77.35 -162.53,81.69 -7.22,2.22 -37.42,-10.87 -45.78,-17.79 -0.03,-0.37 -0.08,-0.88 -0.1,-1.25 103.37,-37.89 135.91,-58.17 123.37,-74.16 -7.46,-9.63 -45,-0.82 -56.09,-0.75 23.11,-11.12 128.94,-46.07 149.65,-11.06zm-65.4 -14.12l0.04 0 -1.34 0.35 1.3 -0.35zm-876.11 1430.62c-3.04,10.66 -13.37,36.32 -43.85,44.46 -269.31,36.75 -294.86,34.23 -295.82,34.1 -19.05,-2.49 -27.48,-38.86 -2.82,-73.2 13.81,-19.22 27.42,-22.23 33.96,-23.67 67.48,-6.82 157.48,-16.02 224.63,-25.59 18.31,-2.61 42.7,-8.9 61.18,-7.81 17.39,1.02 31.02,22.52 22.72,51.71zm738.6 -151.5c-0.25,10.25 -4.41,35.39 -37.63,47.19 -314.64,74.64 -348,77.44 -348.24,77.44 -27.19,0.78 -46.12,-32.64 -27.51,-66.61 10.95,-19.99 27.05,-25.1 34.78,-27.55 79.89,-17.08 186.44,-39.84 265.84,-59.02 20.9,-5.05 48.43,-14.25 69.87,-15.97 18.38,-1.47 43.59,14.74 42.89,44.52zm-936.54 -48.66c-4.5,10.13 -17.7,34.33 -43.25,40.22 -60.76,4.88 -187.2,15.03 -197.83,11.62 -15.7,-5.05 -12.32,-41.16 12.66,-71.16 14.83,-17.8 26.08,-19.88 31.49,-20.89 54.85,-2.6 127.93,-7.37 182.66,-11.75 2.09,-0.17 4.94,-0.18 7,0.23 13.38,2.74 19.5,24.17 7.27,51.73zm580.5 -93.68c-1.88,9.88 -9.43,33.84 -39.04,43.27 -270.39,52.61 -298.73,53.19 -298.93,53.17 -22.09,-0.95 -30.86,-34.59 -9.22,-66.42 12.69,-18.64 26.51,-22.51 33.15,-24.37 67.83,-11.39 158.3,-26.59 225.75,-40.04 18.02,-3.59 41.82,-10.82 60.18,-11.16 15.4,-0.26 33.54,16.92 28.11,45.55zm-232.8 -355.97c-4.27,8.71 -16.55,29.61 -38.21,35.69 -48.18,6.58 -161,21.99 -169.33,20.24 -11.65,-2.45 -8.47,-27.56 11.87,-53.37 17.2,-21.83 30.02,-25.01 34.85,-26.2 45.74,-5.16 106.67,-12.79 152.29,-19.01 1.69,-0.23 4,-0.35 5.68,-0.1 10.75,1.58 14.45,19.14 2.85,42.75zm1416.33 251.99c3.18,9.43 7.29,32.9 -23.3,47.18 -302.56,101.24 -346.34,110.37 -346.59,110.4 -33.64,3.81 -66.55,-31.35 -49.38,-65.62 6.83,-13.64 16.52,-17.68 25.91,-21.57 79.93,-24.75 186.56,-57.64 265.8,-84.55 20.21,-6.86 46.65,-18.27 67.66,-22.04 18.77,-3.35 50.63,8.79 59.9,36.2zm1099.77 -679.79c238.75,201.92 -685.13,563.09 -698.79,563.08 -41.19,-0.05 -76.51,-43.51 -56.4,-69.41 2.75,-3.55 8.08,-6.72 11.99,-8.94 579.44,-250.35 798.74,-432.42 651.98,-541.24 3.9,2.34 7.79,4.68 11.66,7.02l79.56 49.49zm-230.51 -132.73c368.15,250.63 -1454.48,826.02 -1640,854.71 -44.86,6.93 -59.67,-36.11 -42.48,-64.09 4.99,-8.14 16.78,-15.06 25.34,-19.3 1162.4,-311.95 1764.96,-676.34 1578.74,-808.26 -2.15,-1.52 -4.62,-3.02 -7.23,-4.47 28,13.29 57.53,27.46 85.63,41.41zm-1402.3 542.88c1.81,8.32 3.21,28.84 -22.73,39.71 -169.57,48.88 -485.21,139.86 -881.86,205.85 -1.24,0.21 -124.21,20.1 -129.27,18.68 -21.67,-6.09 -14.53,-36.9 -2.87,-55.82 14.69,-23.82 30.31,-28.03 36.2,-29.61 114.8,-17.14 464.16,-69.32 924.39,-204.8 23.15,-6.83 66.25,-19.52 76.14,25.99zm1096.52 -675.16l51.54 18.84c338.55,160.09 -718.48,553.23 -826.08,584.91 -37.17,10.94 -75.22,-29.11 -62.59,-54.68 3.33,-6.7 9.26,-9.6 14.02,-11.93 792.81,-285.68 928.66,-469.82 804.09,-540.71 -10.17,-5.78 -24.85,-11.42 -35.93,-15.12l54.95 18.69zm-1516.86 599.38c-0.78,8.11 -5.1,27.88 -28.15,36.23 -213.33,49.27 -237.65,51.26 -237.8,51.26 -17.65,-0.27 -24.4,-28.01 -6.88,-54.96 10.23,-15.71 21.08,-19.26 26.28,-20.96 52.68,-10.92 122.94,-25.46 175.31,-37.78 13.79,-3.25 31.98,-9.5 46.14,-10.16 12.01,-0.56 27.36,13 25.1,36.37zm-817.71 128.22c-8.44,10.95 -25.12,29.79 -42.09,32.92 -54.92,-0.73 -106.79,-1.43 -117.25,-5.57 -6.67,-16.7 42.92,-75.93 66.33,-79.22 31.76,2.13 74.19,3.66 106.02,4.09 1.22,0.03 2.93,0.17 3.99,0.78 7.42,4.14 -0.21,25.22 -17,47zm2117.94 -793.25c197.2,60.86 28.66,188.47 -147.45,284.8 -9.66,5.29 -949.3,453.94 -912.91,289.35 3.27,-14.72 13.79,-19.14 18.84,-21.28 826.69,-245.63 1154.63,-483.03 984.36,-562.1 -9.05,-4.21 -20.49,-7.77 -31.73,-10.8 8,1.67 15.89,3.34 23.65,5l65.24 15.03zm-1757.25 584.14c-6.61,9.85 -20.24,27.09 -37.24,31.69 -139.48,15.58 -153.87,14.47 -155.05,14.29 -16.28,-2.44 9.1,-34.68 10.18,-36.05 1.05,-1.31 25.95,-32.45 46.41,-37.1 34.1,-2.42 79.6,-5.73 113.56,-9.76 9.26,-1.1 21.79,-4.86 30.92,-3.03 7.49,1.5 5.32,18.91 -8.78,39.96zm492.51 -97.34c-0.45,7.1 -3.53,24.38 -22.49,31.6 -214.06,51.39 -273.83,60.27 -274.13,60.29 -22.25,1.29 -15.93,-27.51 -6.13,-43.99 11.45,-19.28 23.06,-23.08 27.45,-24.52 43.03,-8.56 132.58,-26.38 211.41,-45.6 12.69,-3.1 29.43,-8.64 42.45,-9.74 9.38,-0.8 22.7,11.55 21.44,31.96zm978.1 -542.07c153.42,24.6 160.5,86.41 21.07,183.7 -44.19,30.86 -829.31,430.01 -783.7,270.03 2.43,-8.54 7.44,-10.81 12.29,-12.99 616.76,-192.06 856.25,-370.58 731.45,-432.22 -25.69,-12.68 -62.11,-17.69 -90.02,-20.41l-6.67 -0.42 115.58 12.31zm-2147.97 2272.09c-2.16,11.69 -10.48,39.49 -40.92,45.22 -217.9,7.55 -264.85,3.62 -273.45,0.6 -24.2,-8.5 -29.75,-70.18 -2.38,-97.51 6.87,-6.85 12.78,-7.57 17.99,-8.21 128.68,3.06 145.2,3.44 262.26,-1.98 2.37,-0.11 5.56,0.2 7.9,0.66 18.59,3.74 34.53,29.22 28.6,61.22zm321.66 -541.72c-3.03,11.11 -13.45,37.76 -44.59,45.23 -139.22,14.41 -191.31,19.81 -197.48,17.76 -31.48,-10.49 -23.82,-59.99 -2.5,-84.36 11.43,-13.06 20.08,-14.86 28.45,-16.59 55.38,-4.89 129.2,-11.67 184.46,-17.72 2.33,-0.25 5.51,-0.31 7.81,0.09 23.31,4.1 30.43,31.48 23.85,55.59zm552.19 418.77c-0.9,11.77 -7.16,40.41 -45.82,52.02 -351.22,64.67 -380.19,64.08 -381.25,64.02 -34.31,-1.85 -55.53,-50.23 -28.08,-86.07 11.3,-14.72 22.35,-17.61 33.04,-20.4 92.26,-14.59 215.28,-34.14 307.05,-51.58 20.3,-3.84 47.18,-11.36 67.84,-11.82 24.31,-0.55 49.69,21.42 47.22,53.83zm2909.91 -1218.66c232.2,438.71 -2450.35,1169.09 -2484.02,1164.05 -47.79,-7.14 -59.67,-66.57 -18.95,-94.89 5.41,-3.76 14.02,-6.33 20.02,-9.05 1610.52,-401.7 2557.03,-917.23 2418.24,-1137.09 13.03,15.3 25.79,30.39 37.78,44.36l26.93 32.62zm-2082.31 756.69c0.84,11.11 -1.32,38.53 -39.59,53.27 -456.05,123.61 -558.88,139.91 -559.63,140.01 -28.83,3.33 -61.41,-30.88 -42.71,-70.39 10.47,-22.13 30.2,-28.67 38.63,-31.45 96.55,-22.58 297.46,-69.58 475.2,-118.63 21.31,-5.88 49.41,-15.32 71.25,-18.63 21.51,-3.26 54.34,12.98 56.85,45.82zm-1004.24 235.3c-1.61,11.46 -9.24,39.22 -45.43,49.56 -341.52,56.55 -398.38,57.7 -398.74,57.68 -30.25,-2.03 -44.52,-50.93 -16.41,-85.45 11.38,-13.98 21.37,-16.37 31.02,-18.68 163.54,-21.11 197.57,-25.5 380.66,-56.33 2.82,-0.47 6.65,-0.6 9.51,-0.62 19.62,-0.15 44.1,20.27 39.39,53.84zm2907.99 -1194.31c231.88,336.25 -1539.96,897.7 -1566.49,891.03 -46.29,-11.63 -56.03,-68.62 -15.55,-91.03 2.75,-1.53 6.75,-2.92 9.65,-4.17 1060.6,-348.53 1646.63,-690.87 1493.82,-872.48l4.4 4.15 65.48 63.75 8.69 8.75zm-1733.69 653.69c1.71,10.41 1.91,36.17 -33.14,50.76 -342.25,101.45 -383.81,108.17 -384.08,108.19 -36.07,2.97 -66.02,-36.28 -43.18,-72.86 9.1,-14.61 19.96,-18.66 30.45,-22.58 89.03,-24.35 207.78,-56.73 296.17,-83.31 22.81,-6.86 52.74,-18.49 76.29,-21.98 20.62,-3.04 52.47,11.37 57.49,41.78zm-889.79 233.78c-1.16,10.96 -7.66,37.66 -43.11,48.97 -161.62,32.67 -228.53,46.19 -236.15,45.46 -35.72,-3.48 -44.53,-41.77 -28,-71.17 11.79,-20.96 29.47,-26.18 37.02,-28.41 66.11,-12.72 154.2,-29.87 220.13,-43.45 2.77,-0.56 6.52,-1.03 9.33,-0.96 25.74,0.48 43.65,22.25 40.78,49.56zm2367.58 -1114.76l0 0.01 0.13 0.09 52.46 41.71 3.83 3.15c245.45,272.01 -1157.69,755.87 -1177,755.09 -44.86,-1.82 -71.35,-51.83 -42.33,-79.87 3.95,-3.81 10.66,-7.16 15.61,-9.51 1026.96,-373.05 1251.28,-622.58 1118.7,-732.28 4.49,3.35 8.89,6.66 13.2,9.91l14.72 11.19 0.68 0.51zm-1077.03 4434.1c1.22,0.06 2.84,0.22 4.05,0.39 -0.9,0.96 -2.57,1.77 -3.85,2.06 -48.56,9.35 -129.82,24.98 -200.15,30.34 -12.37,0.8 -16.92,0.97 -21.16,0.76 0.76,-0.25 1.77,-0.57 2.52,-0.81 68.58,-9.56 94.42,-13.39 181.24,-30.33 3.96,-0.77 15.21,-2.56 34.1,-2.5 0.98,0.02 2.28,0.04 3.25,0.09zm-437.04 -93.08c4.74,4.36 9.83,12.38 -9.3,17.03 -178.98,28.94 -214.34,31.72 -220.92,31.88 -26.82,0.66 -73.43,-14.28 -69.23,-24.76 1.08,-2.69 6.31,-3.73 10.13,-4.48 78.79,-10.3 156.36,-28.94 235.86,-34.34 16.53,-1.13 42.56,4.62 53.46,14.67zm-448.54 -41.03c6.92,5.28 15.69,14.67 -3.13,18.16 -99.55,8.64 -140.75,12.21 -150.86,11.1 -43.72,-4.79 -85.04,-28.52 -76.52,-36.04 1.87,-1.65 5.56,-1.78 8.01,-2.12 45.72,-3.1 106.65,-7.58 152.28,-11.78 2.08,-0.2 4.88,-0.31 6.98,-0.22 23.69,0.93 50.76,11.37 63.24,20.9zm595.29 -100.9c2.57,6.22 3.2,17.72 -21.42,24.81 -209.81,43.02 -247.02,48.32 -253.28,48.58 -35.29,1.55 -71.05,-20.02 -58,-34.95 3.57,-4.07 10.54,-5.83 15.61,-7.11 69.13,-12.68 161.3,-29.7 230.05,-44.23 11,-2.33 25.58,-6.14 36.76,-7.25 19.07,-1.89 44.41,5.92 50.28,20.15zm-425.12 -211.48c2.76,6.84 5.88,23.59 -24.39,31.7 -270.66,46.85 -307.87,49.09 -312.58,49.06 -36.78,-0.24 -82,-30.94 -65.32,-51.32 4.2,-5.13 12.13,-6.92 17.92,-8.22 79.53,-11.6 185.57,-27.16 264.67,-41.32 17.71,-3.17 41.16,-8.91 59.11,-9.9 22.45,-1.25 52.86,10.78 60.59,30zm-678.98 -268.08c3.48,8.42 8.23,28.72 -22.68,35.4 -148.3,15.36 -203.8,21.1 -213.27,19.47 -49.96,-8.61 -78.69,-50.13 -65.72,-67.58 4.29,-5.76 11.87,-7.13 17.97,-8.24 62.74,-5.54 146.39,-13.22 209.02,-20.07 2.84,-0.31 6.68,-0.46 9.53,-0.26 31.05,2.3 57.5,22.8 65.15,41.28zm-426.1 -168.96c5.61,13.82 6.81,31.21 -19.19,35.58 -147.03,5.1 -177.61,6.15 -193.78,1.12 -29.44,-9.2 -73.18,-61.05 -51.07,-77.56 2.94,-2.19 8.14,-2.81 11.77,-3.26 54.23,-0.84 126.53,-2.19 180.7,-4.56 2.65,-0.12 6.21,-0.03 8.82,0.42 30.19,5.28 54.88,28.81 62.75,48.26zm-115.98 -723.99c1.25,11.65 0.42,39.53 -33.82,46.96 -93.99,7.54 -268.95,21.6 -287.56,17.16 -39.31,-9.4 -66.08,-68.72 -43.38,-96.19 6.18,-7.5 14.09,-8.82 20.44,-9.88 83.35,-3.97 194.41,-11.21 277.59,-17.86 3.42,-0.28 8.02,-0.38 11.43,0.04 23.94,2.91 51.87,27.63 55.3,59.77zm1449.76 -277.41c0.58,12.15 -2.78,42.05 -46.2,57.49 -611.9,151.34 -864.64,187.7 -866.58,187.91 -58.08,6.45 -85.7,-51.07 -64.9,-84.46 9.75,-15.65 22.2,-19.17 34.24,-22.57 316.11,-58.21 494.69,-95.39 867.49,-188.12 3.6,-0.88 8.53,-1.38 12.21,-1.92 24.23,-3.56 62.03,15.23 63.74,51.67zm-1068.36 -328.59c-0.12,12.08 -4.5,41.26 -42.45,51.77 -114.84,17.54 -288.37,44.05 -318.91,43.58 -0.34,0 -33.95,-1.07 -45.49,-49.2 -2.12,-33.51 10.41,-53.02 38.31,-59.64 91.6,-11.8 213.57,-29.03 304.86,-42.95 3.63,-0.56 8.54,-0.89 12.22,-0.86 6.24,0.03 38.06,2.44 50.48,46.13 0.3,3.35 1.02,7.81 0.98,11.17zm1949.73 2106.29c-2.5,1.42 -11.69,6.42 -25.14,11.17 -177.95,57.71 -183.83,53.5 -186.35,51.72 0.12,-1.88 0.31,-4.74 14.07,-8.96 80.15,-22.42 109.69,-30.87 197.6,-59.62 4.14,-1.34 5.69,-1.39 7.05,-1.43 0.25,0.31 0.57,0.75 0.81,1.08 -1.15,1.52 -1.8,2.03 -4.92,4.16 -0.93,0.56 -2.17,1.33 -3.12,1.88zm177.68 -66.28c-85.02,36.44 -99.3,40.52 -99.87,40.68 2.11,-1.91 2.11,-1.91 10.84,-6.75 20.02,-10.82 29.15,-14.9 36.02,-17.7 57.09,-22.44 111.03,-43.64 176.88,-76.25 -36.95,18.41 -86.15,43.19 -123.87,60.02zm-514.59 126.35c1.77,2.72 1.11,6.74 -12.07,10.5 -131.41,30.14 -155.5,33.91 -159.01,34.35 -20.82,2.66 -50.26,-1.68 -44.98,-8.27 1.33,-1.67 5.74,-2.78 8.66,-3.51 59.22,-12.18 117.45,-28.93 177.24,-38.46 11.4,-1.81 26.71,0.11 30.16,5.39zm-386.54 74.23c9.37,1.34 10.83,2.13 12.26,2.9 -1.09,0.89 -2.97,1.46 -4.34,1.68 -77.11,8.68 -156.85,17.65 -201.18,6.8 0.81,-0.36 1.87,-0.85 2.68,-1.2 46.08,-3.5 91.81,-10.6 137.99,-13.07 16.3,-0.86 40.56,1.17 52.59,2.89zm1311.25 -433.38l0 0.01c-29.21,19.63 -68.04,45.98 -97.71,64.89 -212.24,123.1 -633.85,270.42 -647.49,244.97 2.07,-6.12 5.2,-11.66 22.45,-17.52 345,-102.36 587.95,-202.65 742.68,-306.56l-10.51 7.52 -9.42 6.69zm-645.37 217.91c-1.25,2.99 -6.99,13.32 -27.76,20.74 -217.45,63.15 -270.11,73.38 -270.62,73.48 -15.61,2.96 -38.43,-3.93 -33.4,-15.9 3,-7.14 14.11,-10.58 18.87,-12.06 98.17,-25.13 193.97,-58.88 293.26,-79.91 11.65,-2.46 24.76,1.53 19.65,13.65zm-568.35 142.56c4.91,3.79 7.54,9.14 -7.82,13.03 -103.24,18.76 -162.18,28.65 -175.16,29.4 -24.89,1.44 -65.65,-7.61 -62.26,-15.78 0.88,-2.09 5.58,-3.11 9.01,-3.84 63.52,-10.04 126.03,-25.97 190.19,-32.16 16.08,-1.54 37.59,2.82 46.04,9.35zm1371.46 -480.77c-210.55,157.82 -616.44,297.32 -637.94,293.14 -0.78,-1.19 -1.82,-2.8 -2.6,-3.99 4.21,-19.3 25.44,-30.48 37.72,-35.43 347.88,-122.48 580.59,-233.81 691.74,-330.92l-0.04 0.03 -88.88 77.17zm-1030.8 310.98c0.07,4.48 -2.32,15.71 -25.88,23.47 -222.3,56.58 -249.38,60.16 -249.63,60.18 -24.96,2.97 -53.42,-10.29 -44.06,-25.25 3.91,-6.22 11.7,-8.52 18.57,-10.54 88.89,-20.6 175.64,-50.02 266.03,-64.39 16.38,-2.61 34.78,3.54 34.97,16.53zm1243.64 -509.03c-206.93,192.66 -995.98,506.78 -994.95,433.52 0.02,-0.81 0.65,-19.97 34.33,-32.73 706.73,-225.86 946.12,-390.31 1027.01,-473.59l-6.18 6.96 -59.29 64.87 -0.92 0.97zm-870.82 280.55c-2.06,6.28 -9.83,22.07 -37.53,32.89 -257.13,79.74 -288.65,85.46 -288.93,85.5 -24.07,4.04 -45.49,-10.99 -33.63,-31.32 7.28,-12.49 22.63,-17.89 29.17,-20.19 149.97,-42.97 173.03,-49.58 296.1,-88.31 2.26,-0.7 5.34,-1.41 7.65,-1.87 15.23,-3.09 33.66,3.44 27.17,23.3zm1092.34 -546.76l-40.57 54.64 -0.4 0.53c-33.9,38.04 -90.68,101.67 -289.18,205.4 -4.43,2.33 -446.47,223.31 -457.56,184.85 -1.74,-6 5.86,-36.07 46.52,-54.7 159.77,-62.91 645.97,-254.36 766.22,-426.05l-25.03 35.33zm-1680.62 572.25c0.73,6.43 -0.82,22.43 -31.12,32.23 -289.21,69.03 -321.62,72.34 -321.91,72.36 -31.25,2.69 -66.62,-19.23 -54.3,-40.01 5.19,-8.75 14.95,-11.54 23.56,-14 162.46,-35.02 187.43,-40.39 326.68,-74.24 2.67,-0.64 6.26,-1.2 8.97,-1.56 21.07,-2.78 46.03,6.89 48.12,25.22zm-657.89 138.2c4.7,7 8.82,19.65 -16.14,25.68 -257.37,37.86 -306.42,38.43 -306.84,38.42 -30.53,-0.35 -80.88,-27.27 -71.95,-42.77 2.29,-3.99 8.76,-5.2 13.49,-6.07 133.24,-14.25 160.97,-17.22 312.19,-39.91 2.49,-0.37 5.86,-0.6 8.38,-0.71 20.24,-0.81 50.21,9.41 60.87,25.36zm2451.3 -881.02c-202.68,273.02 -1495.75,770.73 -1519.45,663.2 -0.62,-2.75 -4.73,-27.32 36.76,-42.49 831.31,-246.83 1405.81,-514.37 1537.32,-715.85l-1.26 2.28 -53.37 92.86zm-1033.6 350.29c-2.11,8.42 -10.61,29.53 -43.89,43.57 -1037.6,343.24 -1003.86,254.03 -992.78,224.72 5.75,-15.16 23.83,-20.85 31.54,-23.28 269.61,-65.09 546.06,-135.03 961.68,-274.18 28.48,-9.53 49.6,4.64 43.45,29.17zm1161.31 -589.91c-24.87,40.85 -71.14,116.88 -286.19,240.44 -5.06,2.9 -509.95,278.94 -527.28,226.96 -3.88,-11.65 4.28,-48.22 47.48,-69.65 488.07,-205.19 730.29,-354.06 809.93,-497.8l-43.94 100.05zm-1722.92 576.92c-0.23,8.67 -4.75,30.27 -41.48,43.56 -432.43,117.18 -530.5,133 -531.3,133.12 -32.21,4.31 -74.14,-24.7 -53.83,-54.63 7.94,-11.71 19.79,-15.38 30.24,-18.63 103.86,-24.28 297.18,-69.52 474.73,-118.48 21.27,-5.87 49.38,-15.05 71.12,-18.81 21.07,-3.66 51.23,7.72 50.52,33.87zm-972.67 227.88c2.67,7.77 5.39,26.79 -27.23,35.4 -315.38,52.19 -378.33,55.02 -378.77,55.02 -36.98,-0.37 -83.85,-37.19 -65.75,-59.48 4.57,-5.62 12.46,-7.3 18.83,-8.66 163.22,-21.07 197.19,-25.47 380,-56.23 2.96,-0.5 6.94,-0.8 9.93,-0.94 23.67,-1.17 55.63,13.5 62.99,34.89zm2811.48 -1101.74l-15.33 46.52c-159.01,323.21 -1507.89,843.55 -1530.63,731.66 -0.07,-0.35 -6.4,-34.6 44.68,-55.27 1203.42,-395.46 1468.19,-657.58 1518.38,-779.45 -1.22,4.2 -2.43,8.37 -3.65,12.5l-13.45 44.04 0 0zm-1621.6 600.32c-0.67,9.74 -6.41,34.01 -45.15,49.19 -367.15,108.82 -413.43,116.72 -413.79,116.77 -34.56,4.66 -67.64,-21.58 -52.85,-53.81 8.95,-19.48 30.02,-26.89 39.02,-30.07 207.7,-56.79 239.62,-65.52 411.49,-117.21 3.2,-0.96 7.58,-1.82 10.86,-2.39 21.93,-3.8 52.5,7.37 50.42,37.52zm-978.41 257.05c1.54,8.94 1.14,30.94 -35.91,42 -173.53,35.08 -245.35,49.59 -254.67,49.26 -51.36,-1.91 -73.93,-38.78 -60.89,-60.94 7.05,-11.96 18.81,-15.19 29.19,-18.05 74.94,-14.43 174.82,-33.87 249.58,-49.25 3.22,-0.67 7.58,-1.28 10.88,-1.4 30.75,-1.17 57.9,15.68 61.82,38.38zm2657.65 -1070.44c-21.98,56.99 -63.23,162.99 -459.28,370.91 -8.36,4.38 -844.31,415.08 -874.93,329.31 -0.15,-0.44 -12.81,-44.31 45.13,-70.07 1052.74,-382.38 1274.34,-616.56 1308,-727.41 -2.27,12.63 -4.61,25.38 -6.99,37.99l-11.37 56.66 -0.56 2.61zm-2953.14 909.13c1.75,9.64 1.72,33.23 -36.05,43.89 -355.79,64.08 -393.81,64.57 -395.26,64.56 -37.14,-0.29 -78.19,-38.37 -62.76,-68.07 6.38,-12.27 17.25,-14.91 27.77,-17.45 195.67,-29.68 220.82,-33.5 391.3,-65.07 3.28,-0.6 7.73,-0.96 11.07,-1.13 26.29,-1.3 59.02,16.16 63.93,43.27zm2997.94 -1176.97c-48.6,172.72 -348.38,365.01 -972.06,623.5 -15.83,6.57 -1603.66,599.51 -1652.36,464.23 -12.64,-35.11 23.86,-50.57 39.45,-57.15 1427.64,-349.21 2543.15,-839.57 2594.76,-1140.65l-9.79 110.07zm-2369.53 791.31c0.5,10.86 -2.89,37.69 -44.88,52.32 -400.57,99.32 -445.43,104.18 -445.76,104.2 -41.51,2.57 -79.93,-37.85 -56.8,-73.11 9.68,-14.74 23.02,-18.91 34.81,-22.59 107.37,-24.16 250.56,-56.33 357.26,-83.24 28.02,-7.07 64.93,-19.2 93.62,-22.59 24.79,-2.94 60.29,12.76 61.75,45.01zm-928.37 202.88c1.77,10.37 1.82,35.55 -35.85,45.59 -302.16,47.18 -352.92,50.92 -360.71,50.33 -45.32,-3.41 -80.3,-54.54 -55.88,-81.66 6.7,-7.44 15.87,-9.5 23.25,-11.18 94.48,-12.19 220.46,-28.74 314.48,-44.14 15.25,-2.5 35.54,-7.24 51,-7.35 26.19,-0.19 58.79,19.65 63.71,48.41zm3313.01 -1298.92l0 0.49 0.16 27.62 -0.01 3.9c-9.58,53.24 -39.2,214.76 -670.48,510.5 -13.59,6.35 -1383.24,593.05 -1444.09,479.97 -0.28,-0.49 -23.21,-49.63 41.34,-74.37 1506.38,-447.38 2056.53,-832.11 2070.67,-1026.54 0.21,4.73 0.41,9.44 0.6,14.12l1.8 64.06 0.01 0.25 0 0zm-15.1 -243.15c-6.16,74.73 -35.71,156.82 -310.87,332.25 -6.16,3.94 -632.96,372.15 -684.68,301.23 -13.24,-18.16 -17.62,-65.29 32.2,-91.98 237.65,-102.68 952.56,-411.58 949.16,-643.53 5.02,33.78 10.21,69.37 14.19,102.03zm-46.55 -273.83c-0.14,99.1 -78.22,237.73 -615.27,507.57 -58.9,29.6 -1281.1,566.67 -1356.98,478.02 -17.6,-20.54 -21.37,-68.61 33.69,-91.26 1214.41,-383.37 1928.5,-761.68 1910.33,-1012.02 4.57,17.69 16.76,67.96 28.23,117.69zm-77.37 -265.05c3.61,108.96 -114.87,232.62 -352.59,367.88 -348.51,198.28 -1102.98,529.01 -1166.92,481.38 -26.13,-19.47 -35.08,-73.51 20.96,-99.31 1275.42,-459.52 1469.25,-729.1 1459.53,-856.17 13.27,34.99 26.47,70.89 39.02,106.22zm-2573.73 857.66c0.45,12.14 -3.09,42.06 -45.58,57.3 -483.21,119.68 -483.21,119.68 -502.4,60.56 -3.6,-33.59 10.69,-55.04 43.66,-65.61 105.44,-23.61 246.04,-55.04 350.8,-81.45 27.68,-6.96 64.21,-18.64 92.53,-22.2 1.72,-0.21 42.23,-4.78 59.35,40.27 0.49,3.33 1.51,7.75 1.64,11.13zm-1733.4 286.8c-0.44,11.81 -4.57,39.77 -33.61,44.24 -95.24,-1.31 -193.7,-2.65 -221.81,-10.09 -0.22,-0.05 -21.29,-6.95 -28.28,-56.05 -1.17,-33.08 6.8,-49.93 24.37,-51.48 63.66,4.3 148.72,7.4 212.53,8.3 2.79,0.05 6.55,0.37 9.27,1.02 6.71,1.62 29.2,10.21 37.09,52.96 0.13,3.33 0.56,7.77 0.44,11.1zm4199.04 -1418.38c113.26,447.99 -2098.57,1082.61 -2125.99,1068.98 -18.13,-9.02 -23.03,-20.99 -27.76,-32.57 -5.62,-33.33 8.34,-56.07 42.72,-69.54 1529.65,-454.3 2136.89,-863.32 2060.13,-1067.15l50.9 100.28zm-3715.08 1107.35c-1.08,11.92 -7.46,40.61 -43.32,49.26 -313.76,34.98 -350.73,31.59 -353.91,31.09 -29.48,-4.62 -48.19,-56.84 -24.43,-90.54 9.77,-13.86 19.32,-15.65 28.56,-17.39 167.12,-11.8 188.59,-13.32 340.79,-31.33 2.87,-0.34 6.76,-0.29 9.65,-0.09 22.55,1.59 45.61,26.21 42.66,59zm1286.52 -265.74c0.23,11.95 -3.78,41.32 -45.66,56 -514.29,123.36 -774.48,177.18 -775.33,177.25 -34.56,2.62 -69.76,-44.21 -40.29,-85.27 11.22,-15.63 23.39,-19.24 35.19,-22.72 213.63,-42.46 473.53,-105.65 756.04,-174.49 3.4,-0.81 8.07,-1.29 11.54,-1.73 23.42,-2.89 57.86,15.51 58.51,50.96zm2246.23 -1159.42l26.56 40.87c7.88,12.53 15.89,25.54 23.85,38.61 138.39,396.77 -1887.78,1016.54 -1915.85,1003.08 -37.42,-17.94 -45.91,-76.18 11.85,-99.72 1426.29,-443.8 1954.74,-829.25 1842.16,-999.6l10.22 14.99 1.06 1.56 0.15 0.21zm-1764.81 1591.14c0.84,12.12 -1.74,42.14 -43.71,58.75 -479.12,135.16 -479.12,135.16 -500.2,76.7 -4.67,-33.46 8.91,-55.36 41.53,-66.99 104.62,-26.99 244.14,-62.93 348,-92.7 27.43,-7.85 63.57,-20.69 91.76,-25.16 1.71,-0.27 42.05,-6.14 60.62,38.32 0.6,3.33 1.76,7.71 2,11.08zm-1028.46 257.08c0.37,12.07 -2.83,41.41 -40.33,53.45 -114.04,22.16 -286.35,55.65 -316.88,56.42 -0.34,0 -33.97,0.29 -47.45,-47.33 -3.46,-33.4 8.27,-53.4 35.87,-61.14 91.06,-15.48 212.23,-37.63 302.89,-55.22 3.6,-0.71 8.49,-1.23 12.16,-1.35 6.25,-0.23 38.13,0.89 52.31,44.05 0.44,3.33 1.34,7.76 1.43,11.12zm788.51 -2945.02c120.61,9.91 149.64,46 86.15,107.53 -59.49,57.68 -202,130.97 -390.97,201.07 -130.6,48.45 -272.15,92.21 -420.7,130.08 -58.08,14.8 -60.34,15.38 -61.61,-7.16 -0.35,-6.03 2.03,-29.95 19.88,-36.99 529.24,-132.23 844.99,-308.19 763.47,-371.32 -33.44,-25.92 -140.44,-24.18 -132.06,-24.52 17.82,-0.63 30.77,-0.92 43.71,-1.05 28.07,0.42 59.67,1.23 92.13,2.36z"/>
   </g>
  </g>
 </g>
</svg>
