<?xml version="1.0" encoding="UTF-8"?>
<svg id="Layer_2" data-name="Layer 2" xmlns="http://www.w3.org/2000/svg" viewBox="0 0 627.26 188.98">
  <defs>
    <style>
      .cls-1 {
        fill-rule: evenodd;
      }

      .cls-1, .cls-2 {
        fill: #0d90cf;
      }
    </style>
  </defs>
  <g id="Layer_1-2" data-name="Layer 1">
    <path class="cls-1" d="M227.2,143.7h1.4v9.83h-1.4v-9.83ZM244.23,143.7v9.83h-1.15l-5.9-7.33v7.33h-1.4v-9.83h1.15l5.9,7.33v-7.33h1.4ZM252.8,144.93v3.43h4.93v1.21h-4.93v3.98h-1.4v-9.83h6.94v1.22h-5.53ZM268.86,153.65c-.99,0-1.89-.22-2.68-.65-.8-.44-1.42-1.04-1.88-1.8-.45-.77-.68-1.62-.68-2.57s.23-1.8.68-2.57c.45-.77,1.08-1.37,1.88-1.8.8-.44,1.69-.65,2.68-.65s1.87.22,2.67.65c.8.43,1.42,1.03,1.87,1.8.45.76.67,1.62.67,2.58s-.23,1.81-.67,2.58c-.45.76-1.07,1.36-1.87,1.8-.8.44-1.68.65-2.67.65ZM268.86,152.4c.72,0,1.37-.16,1.95-.49.58-.33,1.03-.78,1.36-1.36.33-.58.5-1.22.5-1.93s-.17-1.36-.5-1.93c-.33-.58-.79-1.03-1.36-1.36-.58-.33-1.22-.49-1.95-.49s-1.38.16-1.96.49c-.59.33-1.04.78-1.38,1.36-.33.58-.5,1.22-.5,1.93s.17,1.36.5,1.93c.33.58.79,1.03,1.38,1.36.58.33,1.24.49,1.96.49ZM287,153.54l-2.12-3.02c-.26.02-.47.03-.62.03h-2.43v2.99h-1.4v-9.83h3.83c1.27,0,2.27.3,3.01.91.73.61,1.1,1.45,1.1,2.51,0,.76-.19,1.41-.56,1.94-.37.53-.91.92-1.6,1.17l2.33,3.3h-1.53ZM284.22,149.35c.89,0,1.57-.19,2.04-.58.47-.38.7-.93.7-1.64s-.23-1.26-.7-1.64c-.47-.38-1.15-.57-2.04-.57h-2.39v4.42h2.39ZM303.97,153.54v-7.16s-3.57,5.97-3.57,5.97h-.65l-3.55-5.93v7.12h-1.35v-9.83h1.15l4.1,6.91,4.04-6.91h1.15v9.83s-1.33,0-1.33,0ZM318.75,151.08h-5.22l-1.08,2.46h-1.45l4.45-9.83h1.39l4.47,9.83h-1.47l-1.08-2.46ZM318.26,149.95l-2.12-4.82-2.12,4.82h4.24ZM328.44,144.93h-3.37v-1.22h8.13v1.22h-3.37v8.61h-1.39v-8.61ZM338.95,143.7h1.4v9.83h-1.4v-9.83ZM351.96,153.65c-.99,0-1.89-.22-2.68-.65-.8-.44-1.42-1.04-1.88-1.8-.45-.77-.68-1.62-.68-2.57s.23-1.8.68-2.57,1.08-1.37,1.88-1.8c.8-.44,1.69-.65,2.68-.65s1.87.22,2.67.65c.8.43,1.42,1.03,1.87,1.8.45.76.67,1.62.67,2.58s-.22,1.81-.67,2.58c-.45.76-1.07,1.36-1.87,1.8-.8.44-1.68.65-2.67.65ZM351.96,152.4c.72,0,1.37-.16,1.94-.49.58-.33,1.03-.78,1.36-1.36.33-.58.5-1.22.5-1.93s-.17-1.36-.5-1.93c-.33-.58-.79-1.03-1.36-1.36-.58-.33-1.22-.49-1.94-.49s-1.38.16-1.96.49c-.58.33-1.04.78-1.38,1.36-.33.58-.5,1.22-.5,1.93s.17,1.36.5,1.93c.33.58.79,1.03,1.38,1.36.59.33,1.24.49,1.96.49ZM371.99,143.7v9.83h-1.15l-5.9-7.33v7.33h-1.4v-9.83h1.15l5.9,7.33v-7.33h1.4ZM392.98,151.08h-5.23l-1.08,2.46h-1.45l4.45-9.83h1.39l4.47,9.83h-1.48l-1.08-2.46ZM392.49,149.95l-2.12-4.82-2.12,4.82h4.24ZM407.88,148.56h1.35v3.83c-.49.4-1.05.71-1.7.93-.65.21-1.32.32-2.02.32-.99,0-1.89-.22-2.68-.65-.8-.44-1.42-1.03-1.88-1.8-.45-.76-.68-1.62-.68-2.58s.23-1.82.68-2.58c.45-.77,1.08-1.37,1.88-1.8.8-.43,1.7-.65,2.7-.65.79,0,1.5.13,2.14.39.64.26,1.19.64,1.64,1.13l-.87.87c-.79-.76-1.74-1.14-2.85-1.14-.75,0-1.42.16-2.02.48-.59.32-1.06.77-1.4,1.35s-.51,1.22-.51,1.95.17,1.36.51,1.93c.34.58.8,1.03,1.4,1.36.6.33,1.26.49,2,.49.88,0,1.65-.21,2.3-.63v-3.2ZM423.26,152.31v1.22h-7.14v-9.83h6.94v1.22h-5.53v3.02h4.93v1.19h-4.93v3.17h5.73ZM438.21,143.7v9.83h-1.15l-5.9-7.33v7.33h-1.4v-9.83h1.15l5.9,7.33v-7.33h1.4ZM449.77,153.65c-.98,0-1.87-.22-2.66-.65-.79-.44-1.41-1.03-1.86-1.8s-.67-1.62-.67-2.58.22-1.81.67-2.58,1.07-1.36,1.87-1.8c.8-.44,1.68-.65,2.67-.65.77,0,1.47.13,2.11.39.64.26,1.18.64,1.63,1.15l-.91.89c-.74-.78-1.66-1.17-2.77-1.17-.73,0-1.39.16-1.98.49-.59.33-1.05.78-1.38,1.36-.33.58-.5,1.22-.5,1.93s.17,1.36.5,1.93c.33.58.79,1.03,1.38,1.36.59.33,1.25.49,1.98.49,1.09,0,2.02-.39,2.77-1.18l.91.88c-.45.51-.99.89-1.64,1.15-.64.26-1.35.39-2.11.39ZM463.34,150.14v3.4h-1.39v-3.43l-3.9-6.4h1.5l3.15,5.18,3.16-5.18h1.39l-3.9,6.43ZM588.41,70.85c-11.67,0-21.13,9.45-21.13,21.13s9.45,21.13,21.13,21.13,21.13-9.45,21.13-21.13-9.45-21.13-21.13-21.13ZM242.12,109c4.51,4.58,10.26,6.87,17.24,6.87s12.73-2.29,17.24-6.87c4.51-4.58,6.77-10.26,6.77-17.03s-2.26-12.45-6.77-17.03c-4.51-4.58-10.26-6.87-17.24-6.87s-12.73,2.29-17.24,6.87c-4.51,4.58-6.77,10.26-6.77,17.03s2.26,12.45,6.77,17.03ZM256.14,130.81c-10.96,0-20.17-3.78-27.64-11.35-7.47-7.57-11.2-16.73-11.2-27.48s3.73-19.92,11.2-27.48c7.47-7.57,16.68-11.35,27.64-11.35,5.48,0,10.53,1.12,15.15,3.36,4.62,2.24,8.17,4.95,10.64,8.14v-29.31h17.73v93.99h-17.73v-10.01c-2.47,3.19-6.02,5.9-10.64,8.14-4.62,2.24-9.67,3.36-15.15,3.36ZM340.51,130.81c-9.24,0-16.55-2.86-21.92-8.59-5.37-5.73-8.06-13.37-8.06-22.93v-44.66h17.73v41.97c0,5.97,1.4,10.68,4.19,14.11,2.79,3.44,6.77,5.15,11.93,5.15,6.02,0,10.8-2.12,14.34-6.35,3.55-4.23,5.32-10.28,5.32-18.15v-36.74h17.73v74.68h-17.73v-10.16c-4.73,7.77-12.57,11.65-23.53,11.65ZM393.61,129.32V54.63h17.73v10.16c5.05-7.77,13.22-11.65,24.5-11.65,9.35,0,16.82,2.84,22.4,8.51,5.59,5.68,8.38,13.24,8.38,22.7v44.96h-17.73v-42.27c0-5.97-1.5-10.63-4.51-13.97-3.01-3.34-7.09-5-12.25-5-6.12,0-11.12,2.14-14.99,6.42-3.87,4.28-5.8,10.31-5.8,18.07v36.74h-17.73ZM488.6,148.62l11.42-23.34-34.65-70.65h19.5l24.66,52.88,24.82-52.88h19.66l-45.91,93.99h0l-2.4,4.92h-19.49l2.4-4.92ZM588.41,53.12c21.46,0,38.85,17.4,38.85,38.85s-17.4,38.85-38.85,38.85-38.85-17.39-38.85-38.85,17.4-38.85,38.85-38.85Z"/>
    <path class="cls-2" d="M58.08,132.21c.07.42.09,1.43-1.31,1.85-13.05,2.3-14.41,2.25-14.46,2.25-1.51-.09-3.02-2.1-2.06-3.28.24-.3.57-.38.84-.44,7.01-.99,7.91-1.11,14.18-2.26.12-.02.29-.03.41-.04.97-.02,2.2.76,2.41,1.92ZM99.19,122.22c.04.43-.05,1.51-1.65,2.11-15.27,4.14-24.85,6.24-24.86,6.24-1.58.12-3.08-1.49-2.22-2.91.36-.59.84-.76,1.31-.91,4.07-1.01,17.38-4.23,21.42-5.35,1.06-.29,2.46-.79,3.56-.94.95-.13,2.34.48,2.45,1.76ZM133.75,110.63c.01.45-.12,1.58-1.67,2.31-14.77,5.35-16.86,5.84-16.88,5.84-1.43.25-2.8-.96-2.21-2.5.36-.93,1.21-1.29,1.58-1.45,4.07-1.37,9.5-3.19,13.53-4.67,1.03-.38,2.36-.98,3.43-1.22.9-.2,2.18.35,2.22,1.69ZM40.62,19.1c-.42.41-1.01.92-1.46,1.03-3.13.11-3.63.04-3.7,0,.02-.52,2.27-2.31,2.9-2.43.8.02,1.86.04,2.66,0,.18,0,.43-.05.61,0,.1.32-.89,1.3-1,1.41ZM54.42,8.52c-.85.63-1.02.69-1.1.72-.32.03-.75.08-1.07.11,0,0-.01-.01-.01-.02.29-.37,2.35-1.6,2.7-1.72.2-.02.48-.05.68-.07-.06.1-.46.43-1.2.98ZM52,17.5c-.15.31-.48.87-1.02,1.05-4.64.86-5.12.86-5.16.86-.13,0-.25-.35.27-1.11.03-.04.72-1.05,1.4-1.26,1.12-.18,2.61-.42,3.72-.63.24-.05.57-.16.81-.13.25.03.3.55-.02,1.21ZM81.82.03c.27,0,.54-.02.81-.02h0s.02,0,.02,0h.03c.2,0,.4,0,.6,0-.49,0-.98.02-1.47.03ZM62.09,10.45c.04.17.11.59-.26.76-4.69,1.27-5.49,1.37-5.5,1.37-.21,0-.33-.47.04-1.17.26-.5.48-.59.57-.62.79-.19,2.43-.57,3.89-.97.17-.05.4-.13.59-.15.16-.01.54.28.67.78ZM52.87,12.62c-.24.33-.61.75-.97.88-3.61.6-3.91.56-3.91.56-.13-.35,1.57-1.87,2.15-2.06.68-.09,1.6-.21,2.27-.32.27-.05.64-.16.92-.14.17.21-.43,1.04-.46,1.08ZM75.93.53c.16-.02.33-.04.49-.06l-.49.06ZM78.12.53c2.97.26,3.73,1.15,2.24,2.67-1.57,1.61-5.83,3.76-11.39,5.74-.47.17-3.1,1.08-3.24,1.08-.65-.01-1.31-.83-1.27-1.15,0-.07.07-.15.13-.18,10.51-3.46,13.85-6.31,11.73-7.33-.97-.47-2.13-.43-3.06-.42,1.66-.3,3.15-.57,4.86-.42ZM61.89,6.82c.12.14.3.38.14.49-1.96.58-2.12.6-2.13.6-.3-.07-.29-.9-.14-1.15.01-.02.04-.05.06-.06.32-.09.75-.21,1.07-.3.08-.02.2-.08.28-.07.11,0,.48.24.71.51ZM57.62,7.96c-.23.36-.43.58-.59.65-1.25.26-1.26.25-1.31.25-.04-.26,1.14-1.42,1.45-1.55q.81-.16.83-.15c.02.17-.37.8-.38.81ZM70.77,2.59c.13.23.03.52-.32.88-1.3,1.35-5.61,2.92-6.14,3.09-.27.08-1.41-.41-1.73-.67,0-.01,0-.03,0-.05,3.91-1.43,5.14-2.2,4.66-2.8-.28-.36-1.7-.03-2.12-.03.87-.42,4.87-1.74,5.66-.42ZM68.29,2.06h0-.05s.05,0,.05,0ZM35.18,56.13c-.11.4-.51,1.37-1.66,1.68-10.18,1.39-11.14,1.29-11.18,1.29-.72-.09-1.04-1.47-.11-2.77.52-.73,1.04-.84,1.28-.89,2.55-.26,5.95-.61,8.49-.97.69-.1,1.61-.34,2.31-.3.66.04,1.17.85.86,1.95ZM63.1,50.4c0,.39-.17,1.34-1.42,1.78-11.89,2.82-13.15,2.93-13.16,2.93-1.03.03-1.74-1.23-1.04-2.52.41-.76,1.02-.95,1.31-1.04,3.02-.65,7.05-1.51,10.05-2.23.79-.19,1.83-.54,2.64-.6.69-.06,1.65.56,1.62,1.68ZM27.7,48.57c-.17.38-.67,1.3-1.63,1.52-2.3.18-7.08.57-7.48.44-.59-.19-.47-1.56.48-2.69.56-.67.99-.75,1.19-.79,2.07-.1,4.84-.28,6.9-.44.08,0,.19,0,.26,0,.51.1.74.91.27,1.96ZM49.64,45.03c-.07.37-.36,1.28-1.48,1.64-10.22,1.99-11.29,2.01-11.3,2.01-.83-.04-1.17-1.31-.35-2.51.48-.7,1-.85,1.25-.92,2.56-.43,5.98-1,8.53-1.51.68-.14,1.58-.41,2.27-.42.58,0,1.27.64,1.06,1.72ZM40.84,31.57c-.16.33-.63,1.12-1.44,1.35-1.82.25-6.09.83-6.4.76-.44-.09-.32-1.04.45-2.02.65-.83,1.13-.95,1.32-.99,1.73-.2,4.03-.48,5.76-.72.06,0,.15-.01.21,0,.41.06.55.72.11,1.62ZM94.37,41.1c.12.36.28,1.24-.88,1.78-11.44,3.83-13.09,4.17-13.1,4.17-1.27.14-2.52-1.18-1.87-2.48.26-.52.62-.67.98-.82,3.02-.94,7.05-2.18,10.05-3.2.76-.26,1.76-.69,2.56-.83.71-.13,1.91.33,2.26,1.37ZM135.94,15.4c9.02,7.63-25.89,21.28-26.41,21.28-1.56,0-2.89-1.64-2.13-2.62.1-.13.31-.25.45-.34,21.9-9.46,30.19-16.34,24.64-20.46.15.09.29.18.44.27l3.01,1.87ZM127.23,10.39c13.91,9.47-54.97,31.22-61.98,32.3-1.7.26-2.26-1.36-1.61-2.42.19-.31.63-.57.96-.73,43.93-11.79,66.71-25.56,59.67-30.55-.08-.06-.17-.11-.27-.17,1.06.5,2.17,1.04,3.24,1.57ZM74.23,30.9c.07.31.12,1.09-.86,1.5-6.41,1.85-18.34,5.29-33.33,7.78-.05,0-4.69.76-4.89.71-.82-.23-.55-1.39-.11-2.11.56-.9,1.15-1.06,1.37-1.12,4.34-.65,17.54-2.62,34.94-7.74.87-.26,2.5-.74,2.88.98ZM115.67,5.39l1.95.71c12.8,6.05-27.15,20.91-31.22,22.11-1.4.41-2.84-1.1-2.37-2.07.13-.25.35-.36.53-.45,29.96-10.8,35.1-17.76,30.39-20.44-.39-.22-.94-.43-1.36-.57l2.08.71ZM58.34,28.04c-.03.31-.19,1.05-1.06,1.37-8.06,1.86-8.98,1.94-8.99,1.94-.67-.01-.92-1.06-.26-2.08.39-.59.8-.73.99-.79,1.99-.41,4.65-.96,6.63-1.43.52-.12,1.21-.36,1.74-.38.45-.02,1.03.49.95,1.37ZM27.43,32.89c-.32.41-.95,1.13-1.59,1.24-2.08-.03-4.04-.05-4.43-.21-.25-.63,1.62-2.87,2.51-2.99,1.2.08,2.8.14,4.01.15.05,0,.11,0,.15.03.28.16,0,.95-.64,1.78ZM107.48,2.9c7.45,2.3,1.08,7.12-5.57,10.76-.36.2-35.88,17.16-34.5,10.94.12-.56.52-.72.71-.8C99.36,14.52,111.76,5.54,105.32,2.56c-.34-.16-.77-.29-1.2-.41.3.06.6.13.89.19l2.47.57ZM41.07,24.98c-.25.37-.76,1.02-1.41,1.2-5.27.59-5.82.55-5.86.54-.62-.09.34-1.31.38-1.36.04-.05.98-1.23,1.75-1.4,1.29-.09,3.01-.22,4.29-.37.35-.04.82-.18,1.17-.11.28.06.2.71-.33,1.51ZM59.68,21.3c-.02.27-.13.92-.85,1.19-8.09,1.94-10.35,2.28-10.36,2.28-.84.05-.6-1.04-.23-1.66.43-.73.87-.87,1.04-.93,1.63-.32,5.01-1,7.99-1.72.48-.12,1.11-.33,1.6-.37.35-.03.86.44.81,1.21ZM96.65.82c5.8.93,6.07,3.27.8,6.94-1.67,1.17-31.34,16.25-29.62,10.21.09-.32.28-.41.46-.49,23.31-7.26,32.36-14.01,27.65-16.34-.97-.48-2.35-.67-3.4-.77l-.25-.02,4.37.47ZM15.47,86.69c-.08.44-.4,1.49-1.55,1.71-8.24.29-10.01.14-10.34.02-.91-.32-1.12-2.65-.09-3.69.26-.26.48-.29.68-.31,4.86.12,5.49.13,9.91-.07.09,0,.21,0,.3.02.7.14,1.31,1.1,1.08,2.31ZM27.62,66.22c-.11.42-.51,1.43-1.69,1.71-5.26.54-7.23.75-7.46.67-1.19-.4-.9-2.27-.09-3.19.43-.49.76-.56,1.08-.63,2.09-.18,4.88-.44,6.97-.67.09,0,.21-.01.3,0,.88.15,1.15,1.19.9,2.1ZM48.49,82.04c-.03.44-.27,1.53-1.73,1.97-13.27,2.44-14.37,2.42-14.41,2.42-1.3-.07-2.1-1.9-1.06-3.25.43-.56.84-.67,1.25-.77,3.49-.55,8.14-1.29,11.6-1.95.77-.15,1.78-.43,2.56-.45.92-.02,1.88.81,1.78,2.03ZM158.47,35.98c8.78,16.58-92.61,44.19-93.88,44-1.81-.27-2.26-2.52-.72-3.59.2-.14.53-.24.76-.34,60.87-15.18,96.64-34.67,91.4-42.98.49.58.97,1.15,1.43,1.68l1.02,1.23ZM79.77,64.58c.03.42-.05,1.46-1.5,2.01-17.24,4.67-21.12,5.29-21.15,5.29-1.09.13-2.32-1.17-1.61-2.66.4-.84,1.14-1.08,1.46-1.19,3.65-.85,11.24-2.63,17.96-4.48.81-.22,1.87-.58,2.69-.7.81-.12,2.05.49,2.15,1.73ZM41.82,73.48c-.06.43-.35,1.48-1.72,1.87-12.91,2.14-15.06,2.18-15.07,2.18-1.14-.08-1.68-1.93-.62-3.23.43-.53.81-.62,1.17-.71,6.18-.8,7.47-.96,14.39-2.13.11-.02.25-.02.36-.02.74,0,1.67.77,1.49,2.03ZM151.73,28.34c8.76,12.71-58.2,33.93-59.21,33.68-1.75-.44-2.12-2.59-.59-3.44.1-.06.26-.11.36-.16,40.09-13.17,62.23-26.11,56.46-32.98l.17.16,2.48,2.41.33.33ZM86.2,53.04c.06.39.07,1.37-1.25,1.92-12.94,3.83-14.51,4.09-14.52,4.09-1.36.11-2.5-1.37-1.63-2.75.34-.55.75-.71,1.15-.85,3.36-.92,7.85-2.14,11.19-3.15.86-.26,1.99-.7,2.88-.83.78-.11,1.98.43,2.17,1.58ZM52.57,61.88c-.04.41-.29,1.42-1.63,1.85-6.11,1.23-8.64,1.75-8.93,1.72-1.35-.13-1.68-1.58-1.06-2.69.45-.79,1.11-.99,1.4-1.07,2.5-.48,5.83-1.13,8.32-1.64.1-.02.25-.04.35-.04.97.02,1.65.84,1.54,1.87ZM142.05,19.75h0s0,0,0,0l1.98,1.58.15.12c9.28,10.28-43.76,28.57-44.49,28.54-1.69-.07-2.7-1.96-1.6-3.02.15-.14.4-.27.59-.36,38.81-14.1,47.29-23.53,42.28-27.68.17.13.34.25.5.37l.56.42.03.02ZM101.35,187.33s.11,0,.15.01c-.03.04-.1.07-.14.08-1.84.35-4.91.94-7.57,1.15-.47.03-.64.04-.8.03.03,0,.07-.02.1-.03,2.59-.36,3.57-.51,6.85-1.15.15-.03.57-.1,1.29-.09.04,0,.09,0,.12,0ZM84.83,183.82c.18.17.37.47-.35.64-6.76,1.09-8.1,1.2-8.35,1.21-1.01.03-2.78-.54-2.62-.94.04-.1.24-.14.38-.17,2.98-.39,5.91-1.09,8.91-1.3.62-.04,1.61.18,2.02.55ZM67.88,182.27c.26.2.59.55-.12.69-3.76.33-5.32.46-5.7.42-1.65-.18-3.21-1.08-2.89-1.36.07-.06.21-.07.3-.08,1.73-.12,4.03-.29,5.76-.45.08,0,.18-.01.26,0,.9.04,1.92.43,2.39.79ZM90.38,178.45c.1.24.12.67-.81.94-7.93,1.63-9.34,1.83-9.57,1.84-1.33.06-2.69-.76-2.19-1.32.14-.15.4-.22.59-.27,2.61-.48,6.1-1.12,8.69-1.67.42-.09.97-.23,1.39-.27.72-.07,1.68.22,1.9.76ZM74.31,170.46c.1.26.22.89-.92,1.2-10.23,1.77-11.64,1.86-11.81,1.85-1.39,0-3.1-1.17-2.47-1.94.16-.19.46-.26.68-.31,3.01-.44,7.01-1.03,10-1.56.67-.12,1.56-.34,2.23-.37.85-.05,2,.41,2.29,1.13ZM48.65,160.33c.13.32.31,1.09-.86,1.34-5.61.58-7.7.8-8.06.74-1.89-.33-2.97-1.9-2.48-2.55.16-.22.45-.27.68-.31,2.37-.21,5.53-.5,7.9-.76.11-.01.25-.02.36,0,1.17.09,2.17.86,2.46,1.56ZM32.54,153.94c.21.52.26,1.18-.73,1.35-5.56.19-6.71.23-7.32.04-1.11-.35-2.77-2.31-1.93-2.93.11-.08.31-.11.44-.12,2.05-.03,4.78-.08,6.83-.17.1,0,.23,0,.33.02,1.14.2,2.07,1.09,2.37,1.82ZM28.16,126.58c.05.44.02,1.49-1.28,1.77-3.55.29-10.17.82-10.87.65-1.49-.35-2.5-2.6-1.64-3.63.23-.28.53-.33.77-.37,3.15-.15,7.35-.42,10.49-.67.13-.01.3-.01.43,0,.9.11,1.96,1.04,2.09,2.26ZM82.95,116.09c.02.46-.11,1.59-1.75,2.17-23.13,5.72-32.68,7.09-32.75,7.1-2.2.24-3.24-1.93-2.45-3.19.37-.59.84-.72,1.29-.85,11.95-2.2,18.7-3.61,32.79-7.11.14-.03.32-.05.46-.07.92-.14,2.34.58,2.41,1.95ZM42.57,103.67c0,.46-.17,1.56-1.6,1.96-4.34.66-10.9,1.67-12.05,1.65-.01,0-1.28-.04-1.72-1.86-.08-1.27.39-2,1.45-2.25,3.46-.45,8.07-1.1,11.52-1.62.14-.02.32-.03.46-.03.24,0,1.44.09,1.91,1.74.01.13.04.29.04.42ZM116.26,183.28c-.09.05-.44.24-.95.42-6.72,2.18-6.95,2.02-7.04,1.96,0-.07.01-.18.53-.34,3.03-.85,4.15-1.17,7.47-2.25.16-.05.21-.05.27-.06,0,.01.02.03.03.04-.04.06-.07.08-.19.16-.04.02-.08.05-.12.07ZM122.98,180.78c-3.21,1.38-3.75,1.53-3.78,1.54q.08-.07.41-.26c.76-.41,1.1-.56,1.36-.67,2.16-.85,4.2-1.65,6.69-2.88-1.4.7-3.26,1.63-4.68,2.27ZM103.53,185.55c.07.1.04.25-.46.4-4.97,1.14-5.88,1.28-6.01,1.3-.79.1-1.9-.06-1.7-.31.05-.06.22-.1.33-.13,2.24-.46,4.44-1.09,6.7-1.45.43-.07,1.01,0,1.14.2ZM88.92,188.36c.35.05.41.08.46.11-.04.03-.11.06-.16.06-2.91.33-5.93.67-7.6.26.03-.01.07-.03.1-.05,1.74-.13,3.47-.4,5.22-.49.62-.03,1.53.04,1.99.11ZM138.48,171.98h0c-1.1.74-2.57,1.74-3.69,2.45-8.02,4.65-23.96,10.22-24.47,9.26.08-.23.2-.44.85-.66,13.04-3.87,22.22-7.66,28.07-11.59l-.4.28-.36.25ZM114.09,180.21c-.05.11-.26.5-1.05.78-8.22,2.39-10.21,2.77-10.23,2.78-.59.11-1.45-.15-1.26-.6.11-.27.53-.4.71-.46,3.71-.95,7.33-2.23,11.08-3.02.44-.09.94.06.74.52ZM92.61,185.6c.19.14.28.35-.3.49-3.9.71-6.13,1.08-6.62,1.11-.94.05-2.48-.29-2.35-.6.03-.08.21-.12.34-.15,2.4-.38,4.76-.98,7.19-1.22.61-.06,1.42.11,1.74.35ZM144.44,167.43c-7.96,5.96-23.3,11.24-24.11,11.08-.03-.04-.07-.11-.1-.15.16-.73.96-1.15,1.43-1.34,13.15-4.63,21.94-8.84,26.14-12.51h0s-3.36,2.92-3.36,2.92ZM105.48,179.19c0,.17-.09.59-.98.89-8.4,2.14-9.43,2.27-9.44,2.27-.94.11-2.02-.39-1.67-.95.15-.24.44-.32.7-.4,3.36-.78,6.64-1.89,10.05-2.43.62-.1,1.32.13,1.32.62ZM152.49,159.95c-7.82,7.28-37.64,19.15-37.61,16.38,0-.03.03-.76,1.3-1.24,26.71-8.54,35.76-14.75,38.82-17.9l-.23.26-2.24,2.45-.03.04ZM119.57,170.55c-.08.24-.37.83-1.42,1.24-9.72,3.01-10.91,3.23-10.92,3.23-.91.15-1.72-.42-1.27-1.18.28-.47.85-.68,1.1-.76,5.67-1.62,6.54-1.87,11.19-3.34.08-.03.2-.05.29-.07.57-.12,1.27.13,1.03.88ZM160.86,149.88l-1.53,2.06v.02c-1.3,1.44-3.44,3.84-10.94,7.76-.17.09-16.88,8.44-17.29,6.99-.07-.23.22-1.36,1.76-2.07,6.04-2.38,24.41-9.61,28.96-16.1l-.95,1.34ZM97.34,171.51c.03.24-.03.85-1.18,1.22-10.93,2.61-12.16,2.73-12.17,2.74-1.18.1-2.52-.73-2.05-1.51.2-.33.56-.44.89-.53,6.14-1.32,7.08-1.53,12.35-2.81.1-.02.24-.04.34-.06.8-.1,1.74.26,1.82.95ZM72.47,176.74c.18.26.33.74-.61.97-9.73,1.43-11.58,1.45-11.6,1.45-1.15-.01-3.06-1.03-2.72-1.62.09-.15.33-.2.51-.23,5.04-.54,6.08-.65,11.8-1.51.09-.01.22-.02.32-.03.76-.03,1.9.36,2.3.96ZM165.12,143.44c-7.66,10.32-56.53,29.13-57.43,25.07-.02-.1-.18-1.03,1.39-1.61,31.42-9.33,53.13-19.44,58.1-27.06l-.05.09-2.02,3.51ZM126.06,156.68c-.08.32-.4,1.12-1.66,1.65-39.22,12.97-37.94,9.6-37.52,8.49.22-.57.9-.79,1.19-.88,10.19-2.46,20.64-5.1,36.35-10.36,1.08-.36,1.87.18,1.64,1.1ZM169.95,134.38c-.94,1.54-2.69,4.42-10.82,9.09-.19.11-19.27,10.54-19.93,8.58-.15-.44.16-1.82,1.79-2.63,18.45-7.76,27.6-13.38,30.61-18.82l-1.66,3.78ZM104.83,156.19c0,.33-.18,1.14-1.57,1.65-16.34,4.43-20.05,5.03-20.08,5.03-1.22.16-2.8-.93-2.03-2.06.3-.44.75-.58,1.14-.7,3.93-.92,11.23-2.63,17.94-4.48.8-.22,1.87-.57,2.69-.71.8-.14,1.94.29,1.91,1.28ZM68.07,164.8c.1.29.2,1.01-1.03,1.34-11.92,1.97-14.3,2.08-14.32,2.08-1.4-.01-3.17-1.41-2.49-2.25.17-.21.47-.28.71-.33,6.17-.8,7.45-.96,14.36-2.13.11-.02.26-.03.38-.04.89-.04,2.1.51,2.38,1.32ZM174.33,123.16l-.58,1.76c-6.01,12.22-56.99,31.88-57.85,27.65,0-.01-.24-1.31,1.69-2.09,45.48-14.95,55.49-24.85,57.39-29.46-.05.16-.09.32-.14.47l-.51,1.66ZM113.04,145.85c-.03.37-.24,1.29-1.71,1.86-13.88,4.11-15.63,4.41-15.64,4.41-1.31.18-2.56-.82-2-2.03.34-.74,1.13-1.02,1.47-1.14,7.85-2.15,9.06-2.48,15.55-4.43.12-.04.29-.07.41-.09.83-.14,1.99.28,1.91,1.42ZM76.06,155.56c.06.34.04,1.17-1.36,1.59-6.56,1.33-9.27,1.87-9.63,1.86-1.94-.07-2.79-1.47-2.3-2.3.27-.45.71-.57,1.1-.68,2.83-.54,6.61-1.28,9.43-1.86.12-.02.29-.05.41-.05,1.16-.04,2.19.59,2.34,1.45ZM176.51,115.11c-.83,2.15-2.39,6.16-17.36,14.02-.32.17-31.91,15.69-33.07,12.45,0-.02-.49-1.68,1.71-2.65,39.79-14.45,48.16-23.3,49.44-27.49-.09.48-.17.96-.26,1.44l-.43,2.14-.02.1ZM64.89,149.47c.07.36.07,1.26-1.36,1.66-13.45,2.42-14.88,2.44-14.94,2.44-1.4-.01-2.96-1.45-2.37-2.57.24-.46.65-.56,1.05-.66,7.4-1.12,8.35-1.27,14.79-2.46.12-.02.29-.04.42-.04.99-.05,2.23.61,2.42,1.64ZM178.2,104.98c-1.84,6.53-13.17,13.8-36.74,23.57-.6.25-60.61,22.66-62.45,17.55-.48-1.33.9-1.91,1.49-2.16,53.96-13.2,96.12-31.73,98.07-43.11l-.37,4.16ZM88.64,134.89c.02.41-.11,1.42-1.7,1.98-15.14,3.75-16.84,3.94-16.85,3.94-1.57.1-3.02-1.43-2.15-2.76.37-.56.87-.71,1.32-.85,4.06-.91,9.47-2.13,13.5-3.15,1.06-.27,2.45-.72,3.54-.85.94-.11,2.28.48,2.33,1.7ZM53.55,142.56c.07.39.07,1.34-1.35,1.72-11.42,1.78-13.34,1.92-13.63,1.9-1.71-.13-3.04-2.06-2.11-3.09.25-.28.6-.36.88-.42,3.57-.46,8.33-1.09,11.89-1.67.58-.1,1.34-.27,1.93-.28.99,0,2.22.74,2.41,1.83ZM178.77,93.46v1.06s0,.15,0,.15c-.36,2.01-1.48,8.12-25.34,19.29-.51.24-52.28,22.41-54.58,18.14-.01-.02-.88-1.88,1.56-2.81,56.93-16.91,77.73-31.45,78.26-38.8,0,.18.01.36.02.53l.07,2.42h0ZM178.2,84.27c-.23,2.82-1.35,5.93-11.75,12.56-.23.15-23.92,14.07-25.88,11.39-.5-.69-.67-2.47,1.22-3.48,8.98-3.88,36-15.56,35.87-24.32.19,1.28.39,2.62.54,3.86ZM176.44,73.93c0,3.75-2.96,8.99-23.26,19.18-2.23,1.12-48.42,21.42-51.29,18.07-.67-.78-.81-2.59,1.27-3.45,45.9-14.49,72.89-28.79,72.2-38.25.17.67.63,2.57,1.07,4.45ZM173.52,63.91c.14,4.12-4.34,8.79-13.33,13.9-13.17,7.49-41.69,19.99-44.1,18.19-.99-.74-1.33-2.78.79-3.75,48.21-17.37,55.53-27.56,55.16-32.36.5,1.32,1,2.68,1.47,4.01ZM76.24,96.32c.02.46-.12,1.59-1.72,2.17q-18.26,4.52-18.99,2.29c-.14-1.27.4-2.08,1.65-2.48,3.99-.89,9.3-2.08,13.26-3.08,1.05-.26,2.43-.7,3.5-.84.07,0,1.6-.18,2.24,1.52.02.13.06.29.06.42ZM10.73,107.16c-.02.45-.17,1.5-1.27,1.67-3.6-.05-7.32-.1-8.38-.38,0,0-.8-.26-1.07-2.12-.04-1.25.26-1.89.92-1.95,2.41.16,5.62.28,8.03.31.11,0,.25.01.35.04.25.06,1.1.39,1.4,2,0,.13.02.29.02.42ZM169.43,53.55c4.28,16.93-79.32,40.92-80.35,40.4-.69-.34-.87-.79-1.05-1.23-.21-1.26.32-2.12,1.61-2.63,57.81-17.17,80.76-32.63,77.86-40.33l1.92,3.79ZM29.02,95.41c-.04.45-.28,1.53-1.64,1.86-11.86,1.32-13.26,1.19-13.38,1.17-1.11-.17-1.82-2.15-.92-3.42.37-.52.73-.59,1.08-.66,6.32-.45,7.13-.5,12.88-1.18.11-.01.26-.01.36,0,.85.06,1.72.99,1.61,2.23ZM77.64,85.36c0,.45-.14,1.56-1.73,2.12-19.44,4.66-29.27,6.7-29.3,6.7-1.31.1-2.64-1.67-1.52-3.22.42-.59.88-.73,1.33-.86,8.07-1.6,17.9-3.99,28.57-6.59.13-.03.31-.05.44-.07.89-.11,2.19.59,2.21,1.93ZM162.54,41.54l1,1.54c.3.47.6.97.9,1.46,5.23,15-71.35,38.42-72.41,37.91-1.41-.68-1.74-2.88.45-3.77,53.91-16.77,73.88-31.34,69.62-37.78l.39.57.04.06h0ZM95.84,101.68c.03.46-.07,1.59-1.65,2.22q-18.11,5.11-18.91,2.9c-.18-1.26.34-2.09,1.57-2.53,3.95-1.02,9.23-2.38,13.15-3.5,1.04-.3,2.4-.78,3.47-.95.06-.01,1.59-.23,2.29,1.45.02.13.07.29.08.42ZM56.97,111.4c.01.46-.11,1.57-1.52,2.02-4.31.84-10.82,2.1-11.98,2.13-.01,0-1.28.01-1.79-1.79-.13-1.26.31-2.02,1.36-2.31,3.44-.58,8.02-1.42,11.45-2.09.14-.03.32-.05.46-.05.24,0,1.44.03,1.98,1.67.02.12.05.29.05.42ZM86.77.09c4.56.37,5.66,1.74,3.26,4.06-2.25,2.18-7.63,4.95-14.78,7.6-4.94,1.83-10.29,3.49-15.9,4.92-2.2.56-2.28.58-2.33-.27-.01-.23.08-1.13.75-1.4,20-5,31.94-11.65,28.86-14.03-1.26-.98-5.31-.91-4.99-.93.67-.02,1.16-.03,1.65-.04,1.06.02,2.26.05,3.48.09Z"/>
  </g>
</svg>