<svg width="20" height="20" viewBox="0 0 20 20" fill="none" xmlns="http://www.w3.org/2000/svg">
<path d="M3.3335 6.66683C3.3335 5.78277 3.68469 4.93493 4.30981 4.30981C4.93493 3.68469 5.78277 3.3335 6.66683 3.3335H13.3335C14.2176 3.3335 15.0654 3.68469 15.6905 4.30981C16.3156 4.93493 16.6668 5.78277 16.6668 6.66683V13.3335C16.6668 14.2176 16.3156 15.0654 15.6905 15.6905C15.0654 16.3156 14.2176 16.6668 13.3335 16.6668H6.66683C5.78277 16.6668 4.93493 16.3156 4.30981 15.6905C3.68469 15.0654 3.3335 14.2176 3.3335 13.3335V6.66683Z" stroke="#38404E" stroke-width="1.5" stroke-linecap="round" stroke-linejoin="round"/>
<path d="M13.75 6.25V6.25833M7.5 10C7.5 10.663 7.76339 11.2989 8.23223 11.7678C8.70107 12.2366 9.33696 12.5 10 12.5C10.663 12.5 11.2989 12.2366 11.7678 11.7678C12.2366 11.2989 12.5 10.663 12.5 10C12.5 9.33696 12.2366 8.70107 11.7678 8.23223C11.2989 7.76339 10.663 7.5 10 7.5C9.33696 7.5 8.70107 7.76339 8.23223 8.23223C7.76339 8.70107 7.5 9.33696 7.5 10Z" stroke="#38404E" stroke-width="1.5" stroke-linecap="round" stroke-linejoin="round"/>
</svg>
